<svg xmlns="http://www.w3.org/2000/svg" xmlns:xlink="http://www.w3.org/1999/xlink" width="1900" height="789.24" viewBox="0 0 1900 789.24">
  <defs>
    <clipPath id="clip-path">
      <rect id="Rectángulo_803" data-name="Rectángulo 803" width="1900" height="789.24" transform="translate(-250 -1)" fill="#fff" stroke="#707070" stroke-width="1"/>
    </clipPath>
  </defs>
  <g id="Enmascarar_grupo_6" data-name="Enmascarar grupo 6" transform="translate(250 1)" clip-path="url(#clip-path)">
    <path id="Trazado_784" data-name="Trazado 784" d="M0,0H1946.9V789.24H0Z" transform="translate(-277.468 -1)" fill="#fffefa"/>
    <g id="Grupo_87" data-name="Grupo 87" transform="translate(-298.902 -443.121)">
      <path id="Trazado_777" data-name="Trazado 777" d="M3965.354-5895.426c-20.625,12.541-41.907,21.6-65.541,25.834-39.229,7.028-77.407-2.211-114.4-28.854-17.323-12.479-34.178-25.851-51.251-38.81-18.2-13.813-37.286-25.28-57.582-33.488-35.317-14.29-66.873-8.853-96.88,4.211-34.675,15.095-62.342,39.907-88.406,67.022-32.073,33.37-63.756,67.214-96.921,99.32-34.784,33.672-75.276,58.522-123.516,69.652q-39.859,9.2-82.7-2.05c-41.479-10.86-71.982-39.525-97.412-77.489-14.244-21.266-28.955-42.426-45.122-62.115-25.455-31-57.683-48.083-92.459-55.262-39.037-8.059-78.121-13.917-117.183-20.548-36.835-6.254-73.655-12.649-109.875-28.105-28.682-12.238-55.4-28.732-77.491-54.121-25.366-29.152-38.779-63.216-46.024-99.454-10.243-51.236-6.263-99.5,5.274-145.755,19.756-79.2,54.865-147.44,107.511-202.627,22-23.066,47.226-41.6,78.252-50.771,39.218-11.6,80.089-4.445,120.926,13.537,39.524,17.4,78.394,37.537,117.769,55.617,51.553,23.673,104.026,40.9,157.356,50.786,47.017,8.717,89.67.559,130.248-15.959,41.673-16.966,80.658-38.687,118.74-62.038,39.381-24.148,79.449-47.067,124.177-61.217,32.611-10.319,66.25-17.457,102.588-13.512,57.3,6.224,106.94,35.513,150.145,82.786,15.794,17.281,30.938,35.256,46.786,52.479,22.469,24.418,48.359,43.727,74.606,62.34,23,16.308,43.551,35.592,60.674,59.136,19.023,26.16,32.037,54.1,34.623,85.591.52,6.329,3.885,13.531,7.483,19.409,12.456,20.349,20.207,41.582,22.993,64.312,6.945,56.652-4.168,106.761-25.56,152.814C4020.306-5946.435,3996.909-5916.193,3965.354-5895.426Z" transform="translate(-1761.075 6562.725)" fill="#befaee" opacity="0.62"/>
      <path id="Trazado_778" data-name="Trazado 778" d="M449.673,681.489c-13.4-4.85-25.531-10.967-36.476-19.433-18.169-14.051-28.866-32.341-31.545-55.139-1.254-10.676-1.94-21.419-2.888-32.131a116.848,116.848,0,0,0-7.639-33.2c-7.4-18.566-21.921-29.932-39.157-38.473-19.918-9.871-41.358-14.083-63.18-16.977-26.854-3.562-53.765-6.826-80.491-11.2-28.03-4.584-54.428-14.038-77.85-30.6A103.9,103.9,0,0,1,79.47,409.874c-11.264-20.107-10.565-40.828-3.871-62.139a321.482,321.482,0,0,0,9.6-36.308C88.856,292.1,83.858,274,73.578,257.7c-11.541-18.3-24.056-35.993-36.225-53.9C25.876,186.917,14.468,170,7.225,150.728c-5.735-15.26-8.863-30.937-6.347-47.273C3.769,84.7,13.4,69.428,26.349,56.062,44.661,37.162,67.161,24.94,91.7,16.392,133.718,1.754,176.89-3.449,221.15,2.278c18.5,2.393,36.266,7.406,52.207,17.482,20.149,12.736,32.79,31.529,40.713,53.417,7.668,21.184,13.9,42.884,21.217,64.2a349.176,349.176,0,0,0,38.569,79.028c14.329,21.761,34.308,36.89,57.119,48.77,23.428,12.2,47.884,21.935,72.7,30.833,25.665,9.2,51.059,19.036,74.44,33.295,17.049,10.4,33.111,22.127,45.4,38.144,19.373,25.255,25.778,53.995,21.889,85.258-1.423,11.43-3.4,22.791-4.771,34.225-1.951,16.212-.362,32.357,1.665,48.45,1.776,14.1,1.319,28.053-2.312,41.824-4.034,15.3-11.157,28.648-23.841,38.745-2.55,2.03-4.382,5.475-5.549,8.636a66.883,66.883,0,0,1-19.079,27.874c-21.935,19.1-47.985,28.932-76.233,33.386C493.006,689.358,470.854,688.453,449.673,681.489Z" transform="matrix(0.875, -0.485, 0.485, 0.875, 1120.014, 386.328)" fill="none" stroke="#c00" stroke-miterlimit="10" stroke-width="1"/>
      <path id="Trazado_779" data-name="Trazado 779" d="M892.586,252.751c-13.4-4.85-25.531-10.967-36.476-19.433-18.169-14.051-28.866-32.341-31.545-55.139-1.254-10.676-1.94-21.419-2.888-32.131a116.846,116.846,0,0,0-7.639-33.2c-7.4-18.566-21.921-29.932-39.157-38.473C754.963,64.507,733.524,60.3,711.7,57.4c-26.854-3.562-53.765-6.826-80.491-11.2-28.03-4.584-54.428-14.038-77.85-30.6a103.9,103.9,0,0,1-30.976-34.465C511.12-38.971,511.819-59.692,518.513-81a321.454,321.454,0,0,0,9.6-36.308c3.659-19.324-1.338-37.426-11.619-53.731-11.541-18.3-24.055-35.993-36.225-53.9-11.476-16.883-22.885-33.8-30.127-53.071-5.735-15.26-8.863-30.937-6.347-47.273,2.89-18.756,12.52-34.026,25.471-47.393,18.312-18.9,40.812-31.122,65.351-39.67,42.018-14.637,85.19-19.84,129.45-14.114,18.5,2.393,36.266,7.406,52.207,17.482,20.149,12.736,32.79,31.529,40.713,53.417,7.668,21.184,13.9,42.883,21.217,64.2a349.177,349.177,0,0,0,38.569,79.028c14.329,21.761,34.308,36.89,57.119,48.77,23.427,12.2,47.884,21.935,72.7,30.833,25.664,9.2,51.059,19.036,74.44,33.295,17.049,10.4,33.111,22.127,45.4,38.144,19.373,25.255,25.778,53.995,21.889,85.258-1.422,11.43-3.4,22.791-4.771,34.225-1.95,16.212-.362,32.357,1.665,48.45,1.777,14.1,1.319,28.053-2.312,41.824-4.034,15.3-11.157,28.648-23.841,38.745-2.55,2.03-4.381,5.475-5.549,8.636a66.882,66.882,0,0,1-19.079,27.874c-21.935,19.1-47.985,28.932-76.232,33.386C935.919,260.62,913.767,259.716,892.586,252.751Z" transform="translate(-442.914 1168.135)" fill="none" stroke="#c00" stroke-miterlimit="10" stroke-width="1"/>
      <path id="Trazado_780" data-name="Trazado 780" d="M822.687,48.031a202.233,202.233,0,0,0-39.4-7.342,167.286,167.286,0,0,0-68.764,8.2c-10.412,3.546-20.545,7.346-30.807,11.029a230.123,230.123,0,0,1-34.612,9.517c-21.229,4.06-40.2,2.516-58.233-1.2-20.843-4.29-37.474-11.341-53.14-19.047-19.279-9.483-38.323-19.1-58.259-28.225C458.568,11.4,434.229,4.336,405.232,1.173a214.655,214.655,0,0,0-49.713.582c-24.932,3.087-43.268,11.233-58.553,22.021-8.562,6.043-17.4,12.057-27.122,17.652-15.3,8.81-34.672,13.664-55.576,15.7-23.464,2.29-46.958,3.955-70.438,5.839-22.14,1.777-44.273,3.6-66.044,7.987-17.24,3.478-33.3,8.166-46.58,15.381C15.958,94.624,7.9,104.3,3.541,114.6c-6.157,14.56-3.765,28.276,3.17,41.421,11.875,22.507,32.978,41.9,64.624,57.583a150.856,150.856,0,0,0,47.037,14.428c23.573,3.3,48.141,1.263,72.687-3.847,23.758-4.946,47.122-10.668,70.79-15.805a757.216,757.216,0,0,1,94.586-14.432c28.262-2.477,53.9-.159,78.291,4.535,25.05,4.822,48.483,10.994,71.374,17.63,23.671,6.862,47.756,13.375,74.641,17.4,19.6,2.932,39.822,4.961,61.665,3.84,34.44-1.768,64.281-10.092,90.25-23.526,9.494-4.911,18.6-10.019,28.123-14.914,13.506-6.94,29.068-12.426,44.845-17.716,13.823-4.635,26.177-10.115,36.47-16.806,11.435-7.434,19.257-15.374,20.812-24.323.313-1.8,2.336-3.846,4.5-5.516,7.487-5.783,12.146-11.817,13.821-18.276,4.174-16.1-2.505-30.34-15.364-43.427C855.718,62.527,841.654,53.933,822.687,48.031Z" transform="translate(107.845 997.717) rotate(13)" fill="#65caca" opacity="0.62"/>
    </g>
  </g>
</svg>
