<svg xmlns="http://www.w3.org/2000/svg" xmlns:xlink="http://www.w3.org/1999/xlink" width="1966.034" height="912" viewBox="0 0 1966.034 912">
  <defs>
    <clipPath id="clip-path">
      <rect id="Rect치ngulo_830" data-name="Rect치ngulo 830" width="1966.034" height="912" transform="translate(-294.034 0)" fill="#fff" stroke="#707070" stroke-width="1"/>
    </clipPath>
  </defs>
  <g id="Enmascarar_grupo_12" data-name="Enmascarar grupo 12" transform="translate(294.034)" clip-path="url(#clip-path)">
    <rect id="Rect치ngulo_829" data-name="Rect치ngulo 829" width="2073.034" height="1080" transform="translate(-334.034 0)" fill="#fffefa"/>
    <g id="Grupo_96" data-name="Grupo 96" transform="translate(-294.034 -637.743)">
      <path id="Trazado_789" data-name="Trazado 789" d="M3781.489-5795.137c-17.266-14.418-34.066-29.872-51.082-44.845-18.138-15.961-37.163-29.211-57.391-38.7-35.2-16.512-66.652-10.23-96.559,4.865-34.56,17.443-62.136,46.115-88.114,77.446-31.968,38.559-63.546,77.666-96.6,114.766-34.669,38.91-75.027,67.625-123.108,80.485q-39.727,10.627-82.431-2.369c-41.342-12.55-71.744-45.673-97.09-89.54-14.2-24.573-28.859-49.025-44.973-71.776-25.372-35.821-57.492-55.561-92.154-63.855-38.908-9.313-77.864-16.082-116.8-23.744-36.713-7.227-73.411-14.617-109.512-32.476-28.587-14.142-55.215-33.2-77.235-62.539-25.283-33.687-38.651-73.047-45.872-114.921-10.209-59.2-6.243-114.976,5.256-168.423,19.691-91.518,54.683-170.37,107.156-234.14,21.931-26.653,47.07-48.065,77.994-58.667,39.089-13.4,79.825-5.136,120.526,15.644,39.394,20.11,78.135,43.375,117.38,64.266,51.383,27.354,103.683,47.258,156.837,58.684,46.862,10.073,89.374.646,129.817-18.442,41.536-19.6,80.392-44.7,118.348-71.686,39.251-27.9,79.187-54.387,123.766-70.738,32.5-11.923,66.031-20.171,102.249-15.612,57.107,7.191,106.587,41.035,149.649,95.661,15.742,19.969,30.836,40.738,46.632,60.641,22.4,28.216,48.2,50.526,74.359,72.035a281.4,281.4,0,0,1,60.473,68.334c18.961,30.228,31.931,62.51,34.509,98.9.518,7.314,3.872,15.635,7.458,22.428a203.033,203.033,0,0,1,22.917,74.313c6.922,65.463-4.154,123.364-25.476,176.579C4015.6-5850.589,3818.358-5764.349,3781.489-5795.137Z" transform="translate(-1783.302 6562.725)" fill="#befaee" opacity="0.62"/>
      <path id="Trazado_790" data-name="Trazado 790" d="M427,744.826c-13.525-4.521-25.661-10.544-36.409-19.273-17.841-14.489-27.67-34.22-28.9-59.531-.578-11.854-.563-23.82-.822-35.734a130.4,130.4,0,0,0-5.663-36.606c-6.4-20.262-20.651-31.993-37.9-40.384-19.931-9.7-41.817-12.962-64.187-14.728-27.528-2.174-55.134-4.012-82.476-7.1-28.675-3.238-55.335-12.032-78.438-28.978a94.562,94.562,0,0,1-29.709-36.452c-10.293-21.725-8.175-44.942.182-69.223a420.68,420.68,0,0,0,12.369-41.246c5.085-21.854,1.137-41.76-8.4-59.3-10.7-19.689-22.45-38.627-33.828-57.827C22.089,220.34,11.432,202.192,5.241,181.13c-4.9-16.678-7.081-34-3.379-52.433C6.113,107.53,17.1,89.806,31.391,73.987c20.208-22.367,44.3-37.549,70.246-48.76,44.434-19.2,89.425-27.922,134.805-24.5,18.966,1.43,37,5.839,52.806,16.032,19.977,12.885,31.783,33.048,38.5,56.989,6.5,23.172,11.484,47.016,17.615,70.36a352.625,352.625,0,0,0,34.56,85.771c13.351,23.368,32.991,38.94,55.778,50.688,23.4,12.066,48.036,21.3,73.1,29.581,25.918,8.559,51.514,17.847,74.731,32.217,16.929,10.478,32.748,22.512,44.374,39.595C646.237,408.9,650.924,440.6,644.8,475.821c-2.24,12.876-5.045,25.713-7.238,38.591-3.109,18.259-2.553,36.206-1.542,54.064a135.252,135.252,0,0,1-5.207,46.923c-5.2,17.379-13.466,32.785-27.261,44.93-2.774,2.442-4.9,6.417-6.319,10.03a88.933,88.933,0,0,1-21.605,32.453c-23.968,22.839-51.566,35.583-81.075,42.466C471.276,750.707,448.432,751.187,427,744.826Z" transform="matrix(0.875, -0.485, 0.485, 0.875, 1103.049, 565.678)" fill="none" stroke="#c00" stroke-miterlimit="10" stroke-width="1"/>
      <path id="Trazado_791" data-name="Trazado 791" d="M891.1,358.738c-13.351-5.6-25.446-12.673-36.355-22.455-18.109-16.237-28.77-37.371-31.44-63.714-1.25-12.337-1.933-24.75-2.879-37.128a153.328,153.328,0,0,0-7.614-38.36c-7.377-21.454-21.849-34.587-39.028-44.457-19.852-11.406-41.221-16.273-62.971-19.617-26.766-4.116-53.587-7.887-80.225-12.938-27.937-5.3-54.248-16.222-77.593-35.363A115.9,115.9,0,0,1,522.122,44.88c-11.227-23.234-10.53-47.177-3.858-71.8a419.8,419.8,0,0,0,9.566-41.955c3.647-22.329-1.334-43.247-11.581-62.087-11.5-21.149-23.976-41.59-36.106-62.278-11.439-19.508-22.809-39.056-30.028-61.325-5.716-17.634-8.834-35.748-6.326-54.625,2.881-21.673,12.479-39.318,25.387-54.764,18.251-21.839,40.677-35.962,65.135-45.84,41.88-16.914,84.909-22.926,129.022-16.309,18.437,2.765,36.146,8.558,52.034,20.2,20.082,14.717,32.682,36.433,40.578,61.725,7.643,24.479,13.853,49.553,21.147,74.186a433.319,433.319,0,0,0,38.442,91.319c14.282,25.145,34.194,42.627,56.93,56.355,23.35,14.1,47.726,25.347,72.462,35.628,25.58,10.631,50.89,22,74.194,38.473,16.992,12.014,33,25.568,45.248,44.076,19.31,29.183,25.693,62.392,21.817,98.518-1.418,13.207-3.384,26.336-4.755,39.548-1.944,18.733-.361,37.389,1.659,55.985,1.771,16.293,1.314,32.416-2.3,48.328-4.021,17.679-11.12,33.1-23.762,44.771-2.542,2.346-4.367,6.326-5.531,9.979-4.027,12.643-10.244,23.353-19.016,32.209-21.862,22.075-47.826,33.432-75.981,38.579C934.291,367.831,912.212,366.785,891.1,358.738Z" transform="translate(-442.914 1409.989)" fill="none" stroke="#c00" stroke-miterlimit="10" stroke-width="1"/>
    </g>
  </g>
</svg>
