<svg id="Camera-amico" xmlns="http://www.w3.org/2000/svg" width="192.203" height="176.924" viewBox="0 0 192.203 176.924">
  <g id="freepik--Floor--inject-42" transform="translate(0 70.065)">
    <ellipse id="freepik--floor--inject-42-2" data-name="freepik--floor--inject-42" cx="96.102" cy="53.43" rx="96.102" ry="53.43" fill="#f5f5f5"/>
  </g>
  <g id="freepik--Clouds--inject-42" transform="translate(19.186 0)">
    <g id="freepik--clouds--inject-42-2" data-name="freepik--clouds--inject-42">
      <path id="freepik--Cloud--inject-42" d="M74.24,39.966l-3.451,1.991a3.607,3.607,0,0,0,.031-.456v-1c0-1.778-1.251-2.5-2.79-1.609a5.34,5.34,0,0,0-1.664,1.6c-.252-2.235-2.007-3.069-4.139-1.838a9.225,9.225,0,0,0-4.171,7.228v1.5a3.907,3.907,0,0,0,.354,1.731l-2.868,1.657A3.415,3.415,0,0,0,54,53.442c0,.984.693,1.385,1.546.893L74.24,43.558a3.411,3.411,0,0,0,1.55-2.68C75.79,39.872,75.1,39.474,74.24,39.966Z" transform="translate(-54 -38.082)" fill="#ebebeb"/>
      <path id="freepik--cloud--inject-42-2" data-name="freepik--cloud--inject-42" d="M132.789,58.606l-2.7,1.574c0-.118.024-.24.024-.358v-.787c0-1.393-.98-1.967-2.188-1.263a4.245,4.245,0,0,0-1.306,1.255c-.2-1.755-1.574-2.408-3.242-1.444a7.226,7.226,0,0,0-3.274,5.67v1.18a3.084,3.084,0,0,0,.275,1.357l-2.243,1.283a2.679,2.679,0,0,0-1.212,2.1c0,.787.543,1.086,1.212.7l14.657-8.464A2.687,2.687,0,0,0,134,59.306C134,58.535,133.477,58.22,132.789,58.606Z" transform="translate(-92.163 -49.64)" fill="#ebebeb"/>
    </g>
  </g>
  <g id="freepik--Shadows--inject-42" transform="translate(14.571 80.582)">
    <ellipse id="freepik--Shadow--inject-42" cx="12.63" cy="7.291" rx="12.63" ry="7.291" transform="translate(114.822)" fill="#e0e0e0"/>
    <path id="freepik--shadow--inject-42-2" data-name="freepik--shadow--inject-42" d="M388.719,340.157a18.232,18.232,0,0,0,8.168,0c3.986-.74,8.145-1.967,12.021-.1a21.025,21.025,0,0,1,3.565,2.361,19.044,19.044,0,0,0,3.581,2.337,6.46,6.46,0,0,0,4.171.571c2.813-.689,3.494-2.754,3.514-4.966a11.662,11.662,0,0,0-.787-4.246c-2.109-4.867-7.57-6.122-12.469-6.524a40.135,40.135,0,0,0-15.944,2.4,22.861,22.861,0,0,0-6.319,3,4.257,4.257,0,0,0-1.574,1.822C386.075,338.324,387.354,339.783,388.719,340.157Z" transform="translate(-251.06 -295.412)" fill="#e0e0e0"/>
    <path id="freepik--shadow--inject-42-3" data-name="freepik--shadow--inject-42" d="M44.884,303.989l74.7-43.128a13.937,13.937,0,0,1,12.623,0l25.859,14.928c3.486,2.015,3.486,5.276,0,7.287L143.681,291.4,180.1,312.421c5.229,3.018,5.229,7.913,0,10.931l-16.589,9.577c-5.229,3.022-13.7,3.022-18.934,0l-36.416-21.023-24.769,14.3a13.961,13.961,0,0,1-12.623,0L44.884,311.276C41.4,309.266,41.4,306,44.884,303.989Z" transform="translate(-42.272 -252.87)" fill="#e0e0e0"/>
  </g>
  <g id="freepik--Plant--inject-42" transform="translate(10.016 103.922)">
    <g id="freepik--Plants--inject-42">
      <path id="Trazado_300" data-name="Trazado 300" d="M52.324,326.212l-3.148,1.814c-.169-9.723-5.9-17.057-8.656-20.823-2.79-3.832,1.066-6.13,4.328-4.446s5.9,6,6.976,11.6A48.228,48.228,0,0,1,52.324,326.212Z" transform="translate(-36.072 -302.197)" fill="#c00"/>
      <path id="Trazado_301" data-name="Trazado 301" d="M52.324,326.212l-3.148,1.814c-.169-9.723-5.9-17.057-8.656-20.823-2.79-3.832,1.066-6.13,4.328-4.446s5.9,6,6.976,11.6A48.228,48.228,0,0,1,52.324,326.212Z" transform="translate(-36.072 -302.197)" fill="#fff" opacity="0.25"/>
      <path id="Trazado_302" data-name="Trazado 302" d="M55.466,328.175h.039a.2.2,0,0,0,.185-.216c-.3-12.241-3.978-18.367-8.228-21.484a.177.177,0,0,0-.264.059.224.224,0,0,0,.055.3c4.175,3.073,7.755,9.077,8.054,21.141A.209.209,0,0,0,55.466,328.175Z" transform="translate(-40.686 -304.77)" fill="#fff"/>
      <path id="Trazado_303" data-name="Trazado 303" d="M30.7,330.783a2.75,2.75,0,0,0,1.027,1.633,3.149,3.149,0,0,1,1.11,1.574c.26,1.346-1.18,2.585-.866,3.911a2.066,2.066,0,0,0,1.011,1.251,12.172,12.172,0,0,0,1.18.567,4.8,4.8,0,0,0,.6.157,2.66,2.66,0,0,1,1.625.811c.665.787.578,2.018.814,3.073a3.407,3.407,0,0,0,2.5,2.6l5.379-3.1a5.216,5.216,0,0,0,.484-6c-.728-1.039-2.093-1.18-2.782-2.211-.618-.933-.26-2.282-.637-3.36a2.757,2.757,0,0,0-2.337-1.633c-.948-.185-1.967.252-2.884-.122a26.27,26.27,0,0,0-2.754-1.251,2.951,2.951,0,0,0-2.754.515A1.968,1.968,0,0,0,30.7,330.783Z" transform="translate(-30.696 -318.171)" fill="#c00"/>
      <path id="Trazado_304" data-name="Trazado 304" d="M30.7,330.783a2.75,2.75,0,0,0,1.027,1.633,3.149,3.149,0,0,1,1.11,1.574c.26,1.346-1.18,2.585-.866,3.911a2.066,2.066,0,0,0,1.011,1.251,12.172,12.172,0,0,0,1.18.567,4.8,4.8,0,0,0,.6.157,2.66,2.66,0,0,1,1.625.811c.665.787.578,2.018.814,3.073a3.407,3.407,0,0,0,2.5,2.6l5.379-3.1a5.216,5.216,0,0,0,.484-6c-.728-1.039-2.093-1.18-2.782-2.211-.618-.933-.26-2.282-.637-3.36a2.757,2.757,0,0,0-2.337-1.633c-.948-.185-1.967.252-2.884-.122a26.27,26.27,0,0,0-2.754-1.251,2.951,2.951,0,0,0-2.754.515A1.968,1.968,0,0,0,30.7,330.783Z" transform="translate(-30.696 -318.171)" fill="#fff" opacity="0.6"/>
      <path id="Trazado_305" data-name="Trazado 305" d="M43.577,338.218a.122.122,0,0,0-.043-.063,14.962,14.962,0,0,0-7.7-6.1.142.142,0,0,0-.165.118.154.154,0,0,0,.106.181,14.642,14.642,0,0,1,7.307,5.615,6.981,6.981,0,0,0-6.071.586.161.161,0,0,0-.039.212.126.126,0,0,0,.11.067.1.1,0,0,0,.079-.024,6.724,6.724,0,0,1,6.2-.413,13.842,13.842,0,0,1,2.07,7.893.149.149,0,0,0,.122.157h0a.142.142,0,0,0,.142-.149A14.138,14.138,0,0,0,43.577,338.218Z" transform="translate(-33.707 -320.306)" fill="#fff"/>
    </g>
  </g>
  <g id="freepik--Spotlight--inject-42" transform="translate(127.383 5.441)">
    <g id="freepik--Light--inject-42">
      <g id="freepik--Tripod--inject-42" transform="translate(4.438 22.07)">
        <path id="Trazado_306" data-name="Trazado 306" d="M367.628,222.1a.244.244,0,0,0-.146-.2.787.787,0,0,0-.7,0,.244.244,0,0,0-.146.2l9.191,14.212h0a.185.185,0,0,0,.1.138.543.543,0,0,0,.492,0,.177.177,0,0,0,.1-.138h0Z" transform="translate(-356.26 -177.031)" fill="#37474f"/>
        <path id="Trazado_307" data-name="Trazado 307" d="M340.26,236.308h0a.177.177,0,0,0,.1.138.551.551,0,0,0,.5,0,.185.185,0,0,0,.1-.138h0l9.207-14.212a.244.244,0,0,0-.146-.2.787.787,0,0,0-.7,0,.244.244,0,0,0-.145.2Z" transform="translate(-340.26 -177.031)" fill="#37474f"/>
        <path id="Trazado_308" data-name="Trazado 308" d="M365.575,222.469a.85.85,0,0,0-.767,0,.268.268,0,0,0-.157.22L364.807,242h0a.189.189,0,0,0,.114.15.59.59,0,0,0,.539,0,.189.189,0,0,0,.114-.15h0l.157-19.316A.268.268,0,0,0,365.575,222.469Z" transform="translate(-355.053 -177.373)" fill="#37474f"/>
        <path id="Trazado_309" data-name="Trazado 309" d="M364.354,220.033a1.818,1.818,0,0,0-.685-.63,4.458,4.458,0,0,0-4.041,0,1.817,1.817,0,0,0-.685.63h-.153v.626h0a1.44,1.44,0,0,0,.834,1.121,4.486,4.486,0,0,0,4.041,0,1.448,1.448,0,0,0,.838-1.121h0v-.626Z" transform="translate(-351.499 -175.276)" fill="#37474f"/>
        <path id="Trazado_310" data-name="Trazado 310" d="M363.669,218.044a4.458,4.458,0,0,0-4.041,0,1.231,1.231,0,0,0,0,2.333,4.458,4.458,0,0,0,4.041,0A1.235,1.235,0,0,0,363.669,218.044Z" transform="translate(-351.499 -174.451)" fill="#455a64"/>
        <path id="Trazado_311" data-name="Trazado 311" d="M365.7,152.632V108h-1.31v44.632a.326.326,0,0,0,.193.268,1.035,1.035,0,0,0,.925,0,.327.327,0,0,0,.193-.268Z" transform="translate(-354.896 -108)" fill="#263238"/>
        <rect id="Rect치ngulo_800" data-name="Rect치ngulo 800" width="8.271" height="0.413" transform="matrix(0.855, -0.519, 0.519, 0.855, 9.974, 58.884)" fill="#37474f"/>
        <rect id="Rect치ngulo_801" data-name="Rect치ngulo 801" width="0.413" height="8.271" transform="translate(2.931 54.951) rotate(-58.79)" fill="#37474f"/>
      </g>
      <path id="Trazado_312" data-name="Trazado 312" d="M328.98,78.834l21.5,12.414V66.424L328.98,54.01Z" transform="translate(-328.98 -53.184)" fill="#37474f"/>
      <path id="Trazado_313" data-name="Trazado 313" d="M330.774,80.315l0-23.2,20.091,11.6v23.2Z" transform="translate(-330.066 -55.07)" fill="#fafafa"/>
      <path id="Trazado_314" data-name="Trazado 314" d="M350.479,65.15l1.432-.83-21.5-12.41-1.432.826Z" transform="translate(-328.98 -51.91)" fill="#455a64"/>
      <path id="Trazado_315" data-name="Trazado 315" d="M385.052,83.45v24.824l-1.432.83V84.28Z" transform="translate(-362.121 -71.04)" fill="#37474f"/>
      <path id="Trazado_316" data-name="Trazado 316" d="M390.128,79.25,387.26,80.9v24.824l2.868-13.236Z" transform="translate(-364.328 -68.492)" fill="#263238"/>
      <path id="Trazado_317" data-name="Trazado 317" d="M332.62,51.91l12.9,4.135,11.466,6.622-2.868,1.653Z" transform="translate(-331.188 -51.91)" fill="#37474f"/>
      <path id="Trazado_318" data-name="Trazado 318" d="M383.62,85.56l.224,24.694-.224.13Z" transform="translate(-362.121 -72.32)" fill="#263238"/>
    </g>
  </g>
  <g id="freepik--speech-bubble--inject-42" transform="translate(153.183 48.899)">
    <g id="freepik--speech-bubble--inject-42-2" data-name="freepik--speech-bubble--inject-42">
      <g id="freepik--speech-bubblea--inject-42">
        <path id="Trazado_319" data-name="Trazado 319" d="M439.646,91.34l-2.506,1.431,2.537,7.316a.843.843,0,0,0,1.207.456l2.506-1.431a.829.829,0,0,0,.3-.309l2.227-3.867Z" transform="translate(-428.896 -60.842)" fill="#263238"/>
        <path id="Trazado_320" data-name="Trazado 320" d="M437.14,93.19l2.537,7.316a.835.835,0,0,0,1.547.147l2.227-3.867Z" transform="translate(-428.896 -61.261)" fill="#37474f"/>
        <path id="Trazado_321" data-name="Trazado 321" d="M452.937,66.046V89.17a2.676,2.676,0,0,1-1.214,2.1L450.462,92a2.684,2.684,0,0,1-2.428,0l-20.34-11.747a2.668,2.668,0,0,1-1.214-2.1V55.025a2.668,2.668,0,0,1,1.214-2.1l1.261-.735a2.684,2.684,0,0,1,2.428,0l20.34,11.747a2.676,2.676,0,0,1,1.214,2.1Z" transform="translate(-426.48 -51.905)" fill="#455a64"/>
        <path id="Trazado_322" data-name="Trazado 322" d="M456.472,95.793l1.261-.727a2.676,2.676,0,0,0,1.214-2.1V69.839a2.52,2.52,0,0,0-.356-1.2L453,71.88V95.213l1.059.611A2.684,2.684,0,0,0,456.472,95.793Z" transform="translate(-432.49 -55.697)" fill="#263238"/>
        <path id="Trazado_323" data-name="Trazado 323" d="M427.694,80.905l20.34,11.747c.673.387,1.214.077,1.214-.7V68.825a2.676,2.676,0,0,0-1.214-2.1l-20.34-11.771c-.673-.387-1.214-.077-1.214.7V78.81A2.668,2.668,0,0,0,427.694,80.905Z" transform="translate(-426.48 -52.557)" fill="#37474f"/>
      </g>
      <g id="freepik--Focus--inject-42" transform="translate(3.186 7.525)">
        <path id="Trazado_324" data-name="Trazado 324" d="M433.314,79.5l-1.833-1.06V76.317a.441.441,0,0,0-.441-.441.449.449,0,0,0-.441.441v2.374a.433.433,0,0,0,.224.379l2.049,1.191a.565.565,0,0,0,.224.054.433.433,0,0,0,.379-.224.425.425,0,0,0,.046-.333A.441.441,0,0,0,433.314,79.5ZM431.041,64.91a.441.441,0,0,0,.441-.441V62.861l1.384.773a.449.449,0,0,0,.657-.495.464.464,0,0,0-.209-.263l-2.049-1.183a.449.449,0,0,0-.441,0,.433.433,0,0,0-.224.379v2.4a.448.448,0,0,0,.441.441Zm15.738,5.762-2.049-1.183a.448.448,0,0,0-.6.162.425.425,0,0,0-.046.333.449.449,0,0,0,.2.271l1.833,1.052v2.119a.448.448,0,0,0,.441.441.441.441,0,0,0,.441-.441V71.051A.448.448,0,0,0,446.779,70.672Zm-2.885,6.96-1.052-.6a9.991,9.991,0,0,0-3.921-7.494V68.1a.449.449,0,0,0-.441-.441.441.441,0,0,0-.441.441v1a2.715,2.715,0,0,0-2.359.1,3.542,3.542,0,0,0-1.547,2.823l-.65-.379a.449.449,0,0,0-.441.773l1.052.6a10.037,10.037,0,0,0,3.929,7.494v1.446a.441.441,0,0,0,.441.441.448.448,0,0,0,.441-.441V80.927a3.094,3.094,0,0,0,1.121.224,2.467,2.467,0,0,0,1.23-.317A3.581,3.581,0,0,0,442.8,78l.642.371a.418.418,0,0,0,.217.062.441.441,0,0,0,.224-.828ZM440.8,80.091a2.018,2.018,0,0,1-1.91-.108V79.31a.449.449,0,0,0-.441-.441.441.441,0,0,0-.441.441v.1a9.373,9.373,0,0,1-2.977-5.893h0a.418.418,0,0,0,.217.062.441.441,0,0,0,.224-.827l-.487-.278a2.993,2.993,0,0,1,1.129-2.552,1.623,1.623,0,0,1,.773-.2,2.6,2.6,0,0,1,1.121.3V70.7a.441.441,0,0,0,.441.441.449.449,0,0,0,.441-.441v-.1a9.327,9.327,0,0,1,3,5.87h0a.464.464,0,0,0-.611.162.449.449,0,0,0,.162.6l.487.278a2.829,2.829,0,0,1-1.1,2.552Zm5.723,4.764a.449.449,0,0,0-.441.441V86.9l-1.384-.773a.456.456,0,0,0-.6.162.441.441,0,0,0,.155.6l2.127,1.137a.525.525,0,0,0,.216.054.464.464,0,0,0,.224-.062.449.449,0,0,0,.217-.379V85.273a.441.441,0,0,0-.48-.441Z" transform="translate(-430.6 -61.635)" fill="#c00"/>
        <path id="Trazado_325" data-name="Trazado 325" d="M433.314,79.5l-1.833-1.06V76.317a.441.441,0,0,0-.441-.441.449.449,0,0,0-.441.441v2.374a.433.433,0,0,0,.224.379l2.049,1.191a.565.565,0,0,0,.224.054.433.433,0,0,0,.379-.224.425.425,0,0,0,.046-.333A.441.441,0,0,0,433.314,79.5ZM431.041,64.91a.441.441,0,0,0,.441-.441V62.861l1.384.773a.449.449,0,0,0,.657-.495.464.464,0,0,0-.209-.263l-2.049-1.183a.449.449,0,0,0-.441,0,.433.433,0,0,0-.224.379v2.4a.448.448,0,0,0,.441.441Zm15.738,5.762-2.049-1.183a.448.448,0,0,0-.6.162.425.425,0,0,0-.046.333.449.449,0,0,0,.2.271l1.833,1.052v2.119a.448.448,0,0,0,.441.441.441.441,0,0,0,.441-.441V71.051A.448.448,0,0,0,446.779,70.672Zm-2.885,6.96-1.052-.6a9.991,9.991,0,0,0-3.921-7.494V68.1a.449.449,0,0,0-.441-.441.441.441,0,0,0-.441.441v1a2.715,2.715,0,0,0-2.359.1,3.542,3.542,0,0,0-1.547,2.823l-.65-.379a.449.449,0,0,0-.441.773l1.052.6a10.037,10.037,0,0,0,3.929,7.494v1.446a.441.441,0,0,0,.441.441.448.448,0,0,0,.441-.441V80.927a3.094,3.094,0,0,0,1.121.224,2.467,2.467,0,0,0,1.23-.317A3.581,3.581,0,0,0,442.8,78l.642.371a.418.418,0,0,0,.217.062.441.441,0,0,0,.224-.828ZM440.8,80.091a2.018,2.018,0,0,1-1.91-.108V79.31a.449.449,0,0,0-.441-.441.441.441,0,0,0-.441.441v.1a9.373,9.373,0,0,1-2.977-5.893h0a.418.418,0,0,0,.217.062.441.441,0,0,0,.224-.827l-.487-.278a2.993,2.993,0,0,1,1.129-2.552,1.623,1.623,0,0,1,.773-.2,2.6,2.6,0,0,1,1.121.3V70.7a.441.441,0,0,0,.441.441.449.449,0,0,0,.441-.441v-.1a9.327,9.327,0,0,1,3,5.87h0a.464.464,0,0,0-.611.162.449.449,0,0,0,.162.6l.487.278a2.829,2.829,0,0,1-1.1,2.552Zm5.723,4.764a.449.449,0,0,0-.441.441V86.9l-1.384-.773a.456.456,0,0,0-.6.162.441.441,0,0,0,.155.6l2.127,1.137a.525.525,0,0,0,.216.054.464.464,0,0,0,.224-.062.449.449,0,0,0,.217-.379V85.273a.441.441,0,0,0-.48-.441Z" transform="translate(-430.6 -61.635)" fill="#fff" opacity="0.3"/>
      </g>
    </g>
  </g>
  <g id="freepik--camera--inject-42" transform="translate(19.639 28.716)">
    <g id="freepik--camera--inject-42-2" data-name="freepik--camera--inject-42">
      <path id="Trazado_465" data-name="Trazado 465" d="M165.58,191.222V132.7h0a3.451,3.451,0,0,0-1.491-2.774l-6.492-4.682-22.4-12.933a11.461,11.461,0,0,0-10.38,0L57.308,151.292a3.652,3.652,0,0,0-2.148,2.986h0v55.783a10.309,10.309,0,0,0,5.154,8.932l8.554,4.946a24.9,24.9,0,0,0,24.9,0l50.844-29.357,4.871,2.813c2.687,1.55,8.137.925,12.17-1.4,2.542-1.468,3.911-3.258,3.907-4.769Z" transform="translate(-55.157 -111.069)" fill="#37474f"/>
      <path id="Trazado_466" data-name="Trazado 466" d="M55.16,216.58h0v55.783a10.309,10.309,0,0,0,5.154,8.932l8.554,4.946a24.9,24.9,0,0,0,12.449,3.337v-61.74L56.99,213.79A3.49,3.49,0,0,0,55.16,216.58Z" transform="translate(-55.157 -173.37)" fill="#263238"/>
      <path id="Trazado_467" data-name="Trazado 467" d="M280.017,216.434l4.871,2.813c2.687,1.55,8.137.925,12.17-1.4,2.542-1.468,3.911-3.258,3.907-4.769h0V154.556h0a3.451,3.451,0,0,0-1.487-2.774l-6.492-4.682h0l-14.606,10.3v59.969Z" transform="translate(-190.546 -132.92)" fill="#37474f"/>
      <path id="Trazado_468" data-name="Trazado 468" d="M284.912,223.117a8.754,8.754,0,0,0,4.793.822V164.131l-.232-10.651-11.053,7.8v59.965l1.621-.94Z" transform="translate(-190.57 -136.79)" opacity="0.1"/>
      <path id="Trazado_469" data-name="Trazado 469" d="M148.68,138.825c3.148,1.81,8.951,1.389,12.985-.936s5.115-5.9,2.436-7.968l-6.492-4.682-22.4-12.933a11.461,11.461,0,0,0-10.38,0L57.3,151.286c-2.868,1.657-2.868,4.328,0,6l11.572,6.689a24.915,24.915,0,0,0,24.9,0L143,135.551Z" transform="translate(-55.152 -111.063)" fill="#455a64"/>
      <path id="Trazado_470" data-name="Trazado 470" d="M161.352,150.088a1.94,1.94,0,0,0-.728-.732h0l-29.215-16.868h0a1.987,1.987,0,0,0-1.991,0l-19.26,11.119a6.225,6.225,0,0,0-2.384,2.888l-2.593,7.476L134.4,170.836l29.215-16.864Z" transform="translate(-85.496 -123.895)" fill="#455a64"/>
      <path id="Trazado_471" data-name="Trazado 471" d="M201.771,150.5a1.967,1.967,0,0,0-.787-.728l-.952-.523-1.9-1.047-3.793-2.125-7.555-4.309-7.507-4.387-3.738-2.223c-1.235-.752-2.483-1.5-3.714-2.259,1.279.685,2.542,1.393,3.813,2.089l3.793,2.125,7.555,4.309,7.507,4.387,3.734,2.223,1.861,1.125.929.563A1.967,1.967,0,0,1,201.771,150.5Z" transform="translate(-125.915 -124.308)" fill="#263238"/>
      <path id="Trazado_472" data-name="Trazado 472" d="M108.778,164.29a5.653,5.653,0,0,0-1.015,1.676l-2.593,7.476,29.215,16.868,3.427-1.967,2.888-5.619Z" transform="translate(-85.49 -143.346)" fill="#37474f"/>
      <path id="Trazado_473" data-name="Trazado 473" d="M182.009,189.414a6.225,6.225,0,0,1,2.384-2.888l19.28-11.12a2,2,0,0,1,2.731.732l2.247,3.891V181.9L179.42,198.771V196.9Z" transform="translate(-130.524 -149.926)" fill="#263238"/>
      <path id="Trazado_474" data-name="Trazado 474" d="M208.168,181.753l-16.817,9.707a3.707,3.707,0,0,0-1.428,1.731l-1.464,4.222c-.216.626.071.866.645.535l21.31-12.3a1.18,1.18,0,0,0,.437-1.637l-1.047-1.818A1.2,1.2,0,0,0,208.168,181.753Z" transform="translate(-135.963 -153.841)" fill="#37474f"/>
      <g id="freepik--lens--inject-42" transform="translate(46.421 41.875)">
        <path id="Trazado_475" data-name="Trazado 475" d="M205.015,218.1l-.393-.031h-1.216a2.116,2.116,0,0,0-.393.024l-.476.047a18.643,18.643,0,0,0-7.106,2.5c-10.624,6.075-19.3,20.933-19.359,33.174a18.634,18.634,0,0,0,1.365,7.551c.181.393.374.787.578,1.153.094.173.193.338.3.5l.047.075c.083.134.173.26.26.393l.055.079-2.727-3.647-.051-.063a2,2,0,0,1-.142-.177l-.138-.185c-.028-.039-.055-.075-.079-.114a15.064,15.064,0,0,1-2.361-8.924c.047-11.293,8.043-25,17.856-30.608a15.779,15.779,0,0,1,7.921-2.361,10.461,10.461,0,0,1,1.232.075h.047Z" transform="translate(-173.159 -217.488)" fill="#263238"/>
        <path id="Trazado_476" data-name="Trazado 476" d="M191.713,270.212a8.815,8.815,0,0,0,1.18.854l-6.8-3.935a.066.066,0,0,1-.035-.027l-.079-.043c-3.411-2.042-5.509-6.335-5.477-12.4.055-12.245,8.715-27.1,19.355-33.178a17.358,17.358,0,0,1,8.582-2.581,9.857,9.857,0,0,1,5,1.3l6.634,3.852c-3.431-1.818-8.1-1.479-13.256,1.464C196.2,231.6,187.539,246.45,187.464,258.7a20.006,20.006,0,0,0,.815,6.028A11.458,11.458,0,0,0,191.713,270.212Z" transform="translate(-177.6 -218.343)" fill="#37474f"/>
        <path id="Trazado_477" data-name="Trazado 477" d="M226.528,290.328a8.846,8.846,0,0,0,1.18.858l-6.8-3.935a.091.091,0,0,1-.035-.024l-.079-.043c-3.411-2.046-5.509-6.335-5.481-12.406.055-12.241,8.719-27.1,19.359-33.174a17.366,17.366,0,0,1,8.582-2.585,9.9,9.9,0,0,1,4.989,1.306l6.646,3.836c-3.431-1.822-8.1-1.479-13.256,1.46-10.624,6.083-19.3,20.933-19.355,33.185a20.036,20.036,0,0,0,.814,6.032A11.41,11.41,0,0,0,226.528,290.328Z" transform="translate(-198.713 -230.547)" fill="#37474f"/>
        <path id="Trazado_478" data-name="Trazado 478" d="M208.827,280.112a8.569,8.569,0,0,0,1.18.854l-6.807-3.935a.114.114,0,0,1-.031-.027l-.079-.043c-3.411-2.042-5.509-6.335-5.481-12.406.055-12.241,8.719-27.1,19.355-33.174a17.369,17.369,0,0,1,8.582-2.581,9.872,9.872,0,0,1,5.009,1.3l6.642,3.832c-3.431-1.822-8.1-1.479-13.256,1.464-10.624,6.079-19.28,20.933-19.355,33.182a20.137,20.137,0,0,0,.818,6.032A11.458,11.458,0,0,0,208.827,280.112Z" transform="translate(-187.977 -224.348)" fill="#455a64"/>
        <path id="Trazado_479" data-name="Trazado 479" d="M198.867,256.614l6.976,4.029c.035-.134.075-.264.11-.393l-6.976-4.029Zm1-3.148,6.976,4.01c.043-.126.091-.256.138-.393l-6.976-4.029Zm1.224-3.042,6.972,4.009.165-.362-6.972-4.029Zm1.432-2.92,6.976,4.025.185-.354-6.972-4.041Zm2.66,16.058-6.957-4.041c-.028.138-.055.275-.079.417l6.976,4.025a2.594,2.594,0,0,1,.059-.417Zm-6.658,7.405c.063.2.13.393.2.578l6.98,4.029c-.067-.189-.13-.393-.193-.571Zm6.2-.165-6.976-4.029a4.806,4.806,0,0,0,.043.484l6.972,4.029c-.016-.177-.027-.338-.039-.5Zm0-3.746-6.972-4.045c0,.15-.02.3-.028.445l6.976,4.029c.008-.15.02-.3.028-.445Zm-.582-22.365,6.976,4.029.212-.338-6.968-4.041Zm11.45-12.131,6.968,4.021.374-.244-6.964-4.045Zm3.3-1.841,6.961,4.017c.149-.071.3-.134.452-.2l-6.972-4.025a2.312,2.312,0,0,0-.437.209Zm4.722-1.479c-.2.028-.394.075-.6.11l6.96,4.021c.2-.039.393-.079.61-.11Zm-10.86,5.414,6.972,4.025.323-.275-6.968-4.025Zm-2.514,2.3,6.972,4.025.3-.3-6.972-4.025Zm-4.269,5.029,6.972,4.025c.079-.106.153-.216.236-.327l-6.976-4.025ZM208,239.4l6.972,4.025.268-.307-6.976-4.025Z" transform="translate(-188.051 -224.616)" fill="#263238"/>
        <path id="Trazado_480" data-name="Trazado 480" d="M265.52,303.872c-.059,12.945,9.007,18.233,20.248,11.8s20.4-22.125,20.461-35.07-9.007-18.234-20.248-11.8S265.579,290.927,265.52,303.872Z" transform="translate(-229.167 -246.952)" fill="#263238"/>
        <path id="Trazado_481" data-name="Trazado 481" d="M264.825,246.73h0l-.614-.358c-3.628-1.924-8.566-1.574-14.015,1.546-11.245,6.429-20.406,22.133-20.461,35.086a21.428,21.428,0,0,0,.862,6.374,12.359,12.359,0,0,0,3.62,5.808,9.9,9.9,0,0,0,1.251.9h.028a.3.3,0,0,0,.071.035l.09.055.334.193,13.614,7.932a10.822,10.822,0,0,1-1.574-1.208c-2.64-2.44-4.194-6.508-4.171-11.9.059-12.945,9.219-28.657,20.461-35.078,4.675-2.668,8.975-3.313,12.4-2.215a8.983,8.983,0,0,1,1.653.689Z" transform="translate(-207.461 -234.288)" fill="#455a64"/>
        <path id="Trazado_482" data-name="Trazado 482" d="M322.844,292.69c-.055,12.249-8.719,27.1-19.359,33.174a17.4,17.4,0,0,1-8.582,2.593,9.916,9.916,0,0,1-4.97-1.287h-.028l-11.336-6.5-.283-.157a10.183,10.183,0,0,1-1.484-1.141c-2.5-2.306-3.97-6.158-3.935-11.253.051-12.261,8.708-27.118,19.331-33.193,4.423-2.526,8.491-3.148,11.725-2.1a8.28,8.28,0,0,1,1.574.653l.087.043.543.319,11.127,6.374h0C320.731,282.236,322.868,286.552,322.844,292.69Z" transform="translate(-233.624 -250.757)" fill="#37474f"/>
        <path id="Trazado_483" data-name="Trazado 483" d="M324.924,280.729c-3.659-2.148-8.727-1.881-14.354,1.334-11.249,6.425-20.413,22.141-20.461,35.094-.028,6.347,2.141,10.836,5.678,13.02,1.18.736,9.168,5.084,10.293,5.749,3.663,2.156,8.739,1.893,14.374-1.326,11.245-6.425,20.413-22.141,20.461-35.094.028-6.4-2.176-10.907-5.764-13.071C333.978,285.726,326.057,281.39,324.924,280.729Z" transform="translate(-244.081 -255.002)" fill="#455a64"/>
        <path id="Trazado_484" data-name="Trazado 484" d="M315.7,331.413c-.059,12.957,9.014,18.249,20.26,11.8s20.417-22.141,20.461-35.094-9.014-18.249-20.264-11.8S315.759,318.456,315.7,331.413Z" transform="translate(-259.602 -263.637)" fill="#263238"/>
        <path id="Trazado_485" data-name="Trazado 485" d="M333.347,348.043c-6.091-.028-6.72-7.22-6.689-10.309.055-12.064,8.948-27.307,19.418-33.292a14.8,14.8,0,0,1,7.118-2.243c6.095.028,6.72,7.216,6.709,10.309-.055,12.06-8.948,27.307-19.422,33.288a14.812,14.812,0,0,1-7.118,2.247Z" transform="translate(-266.249 -268.868)"/>
        <path id="Trazado_486" data-name="Trazado 486" d="M333.347,348.043c-6.091-.028-6.72-7.22-6.689-10.309.055-12.064,8.948-27.307,19.418-33.292a14.8,14.8,0,0,1,7.118-2.243c6.095.028,6.72,7.216,6.709,10.309-.055,12.06-8.948,27.307-19.422,33.288a14.812,14.812,0,0,1-7.118,2.247Z" transform="translate(-266.249 -268.868)"/>
        <path id="Trazado_487" data-name="Trazado 487" d="M355.056,309.747c0-1.845-.212-5.154-1.692-7.527h-.208a14.932,14.932,0,0,0-7.118,2.243c-10.47,5.985-19.363,21.248-19.418,33.292,0,1.845.212,5.155,1.692,7.527h.2a15.132,15.132,0,0,0,7.122-2.247C346.109,337.05,355,321.807,355.056,309.747Z" transform="translate(-266.226 -268.88)" fill="#c00"/>
        <path id="Trazado_488" data-name="Trazado 488" d="M355.056,309.747c0-1.845-.212-5.154-1.692-7.527h-.208a14.932,14.932,0,0,0-7.118,2.243c-10.47,5.985-19.363,21.248-19.418,33.292,0,1.845.212,5.155,1.692,7.527h.2a15.132,15.132,0,0,0,7.122-2.247C346.109,337.05,355,321.807,355.056,309.747Z" transform="translate(-266.226 -268.88)" opacity="0.2"/>
        <path id="Trazado_489" data-name="Trazado 489" d="M345.621,308.54c-10.289,6.146-18.95,21.141-19,33.052v.028c2.475,1.995,6.2,2.034,10.38-.354,7.507-4.289,13.622-14.771,13.657-23.412C350.681,312.9,348.709,309.634,345.621,308.54Z" transform="translate(-266.226 -272.713)" opacity="0.1"/>
        <path id="Trazado_490" data-name="Trazado 490" d="M340.545,324.1a47.755,47.755,0,0,0-9.494,16.526c.441,4.8,4.143,6.618,8.656,4.037,4.832-2.754,8.77-9.514,8.8-15.082C348.536,324.283,345.03,321.969,340.545,324.1Z" transform="translate(-268.913 -281.673)" opacity="0.2"/>
        <path id="Trazado_491" data-name="Trazado 491" d="M359.354,316.175c4.269-5.383,9.636-6.3,10.695-4.572s1.062,19.78-14.818,32.54c0,0,9.136-9.483,11.855-20.358C369.663,313.479,364.154,311.9,359.354,316.175Z" transform="translate(-283.579 -274.092)" fill="#c00"/>
        <path id="Trazado_492" data-name="Trazado 492" d="M359.354,316.175c4.269-5.383,9.636-6.3,10.695-4.572s1.062,19.78-14.818,32.54c0,0,9.136-9.483,11.855-20.358C369.663,313.479,364.154,311.9,359.354,316.175Z" transform="translate(-283.579 -274.092)" fill="#fff" opacity="0.3"/>
        <path id="Trazado_493" data-name="Trazado 493" d="M229.227,331.525a29.142,29.142,0,0,1,.224-3.478l-10.061-5.812c.083-.618.169-1.18.264-1.723l-6.909-3.99-2.975.158-14.1-8.141c.079-.6.173-1.18.275-1.716L173.319,293.76a25.945,25.945,0,0,0-.189,2.943,15.323,15.323,0,0,0,2.361,8.924c.024.039.051.075.079.114l.138.185a2,2,0,0,0,.142.177l.051.063,2.727,3.647-.055-.079c-.087-.126-.177-.252-.26-.393a.7.7,0,0,1-.043-.071,9.746,9.746,0,0,0,3.219,3.195l.079.047.035.024,6.744,3.9,6.807,3.935c-.059-.035-.118-.071-.173-.11l.22.134.079.043.035.024,2.18,1.259a11.115,11.115,0,0,0,2.361,2.92,10.067,10.067,0,0,0,1.247.909h.028a.362.362,0,0,0,.079.039l.087.051.334.2,13.614,7.932c-.157-.1-.3-.2-.452-.3a10.364,10.364,0,0,0,5.989,1.727l.755.433a10.385,10.385,0,0,0,3.274,3.282c1.074.661,7.661,4.257,9.774,5.453C231.238,342.118,229.2,337.691,229.227,331.525Z" transform="translate(-173.13 -263.749)" opacity="0.15"/>
      </g>
      <path id="Trazado_494" data-name="Trazado 494" d="M218.809,147.921a4,4,0,0,0-3.494,0H214.5v1.07a1.267,1.267,0,0,0,.744,1.054,4,4,0,0,0,3.624,0,1.267,1.267,0,0,0,.755-1.043v-1.074Z" transform="translate(-151.801 -133.175)" fill="#263238"/>
      <path id="Trazado_495" data-name="Trazado 495" d="M215.258,145.171c-1,.571-1.007,1.507,0,2.093a4.025,4.025,0,0,0,3.624,0,1.1,1.1,0,0,0,0-2.093A4,4,0,0,0,215.258,145.171Z" transform="translate(-151.803 -131.487)" fill="#37474f"/>
      <path id="Trazado_496" data-name="Trazado 496" d="M234.523,140.472v-1.086h-.814a4.037,4.037,0,0,0-3.5,0H229.4v1.074a1.286,1.286,0,0,0,.748,1.055,4.025,4.025,0,0,0,3.624,0A1.279,1.279,0,0,0,234.523,140.472Z" transform="translate(-160.838 -128)" fill="#263238"/>
      <path id="Trazado_497" data-name="Trazado 497" d="M230.158,136.651a1.1,1.1,0,0,0,0,2.093,4,4,0,0,0,3.624,0,1.1,1.1,0,0,0,0-2.093A4,4,0,0,0,230.158,136.651Z" transform="translate(-160.841 -126.32)" fill="#37474f"/>
      <path id="Trazado_498" data-name="Trazado 498" d="M233.639,156.574a4.017,4.017,0,0,0-3.494,0h-.814v1.07a1.259,1.259,0,0,0,.744,1.055,4,4,0,0,0,3.624,0,1.267,1.267,0,0,0,.755-1.043v-1.078Z" transform="translate(-160.796 -138.424)" fill="#263238"/>
      <path id="Trazado_499" data-name="Trazado 499" d="M230.088,153.821a1.1,1.1,0,0,0,0,2.093,4.014,4.014,0,0,0,3.624,0,1.1,1.1,0,0,0,0-2.093A4,4,0,0,0,230.088,153.821Z" transform="translate(-160.798 -136.734)" fill="#37474f"/>
      <path id="Trazado_500" data-name="Trazado 500" d="M249.347,149.14v-1.074h-.814a4.029,4.029,0,0,0-3.494,0h-.818v1.074a1.275,1.275,0,0,0,.748,1.051,4.013,4.013,0,0,0,3.624,0,1.279,1.279,0,0,0,.755-1.051Z" transform="translate(-169.827 -133.264)" fill="#263238"/>
      <path id="Trazado_501" data-name="Trazado 501" d="M244.988,145.331a1.1,1.1,0,0,0,0,2.093,4,4,0,0,0,3.624,0,1.1,1.1,0,0,0,0-2.093A4,4,0,0,0,244.988,145.331Z" transform="translate(-169.836 -131.584)" fill="#37474f"/>
      <path id="Trazado_502" data-name="Trazado 502" d="M104.269,217.65v-3.935h-2.963a14.614,14.614,0,0,0-12.713-.055H85.63v3.978c0,1.377.889,2.754,2.711,3.825a14.57,14.57,0,0,0,13.181.059C103.348,220.427,104.269,219.046,104.269,217.65Z" transform="translate(-73.638 -172.425)" fill="#263238"/>
      <path id="Trazado_503" data-name="Trazado 503" d="M110.89,222.991a2.886,2.886,0,0,0,.452-.024V212.234l-.452-.024Z" transform="translate(-88.959 -172.411)"/>
      <path id="Trazado_504" data-name="Trazado 504" d="M119.952,213.678l-.452-.138v9.754c.153-.039.3-.083.452-.13Z" transform="translate(-94.181 -173.218)"/>
      <path id="Trazado_505" data-name="Trazado 505" d="M124.309,215.31c-.15-.075-.3-.153-.449-.22v8.546c.153-.067.3-.142.449-.216Z" transform="translate(-96.826 -174.158)"/>
      <path id="Trazado_506" data-name="Trazado 506" d="M115.649,212.7l-.449-.079v10.466q.224-.031.449-.071Z" transform="translate(-91.573 -172.66)"/>
      <path id="Trazado_507" data-name="Trazado 507" d="M132.4,221.115a3.192,3.192,0,0,0,.232-1.18V216h-.24Z" transform="translate(-101.999 -174.71)"/>
      <path id="Trazado_508" data-name="Trazado 508" d="M128.11,223.168c.157-.118.311-.24.453-.366V215.94h-.453Z" transform="translate(-99.403 -174.674)"/>
      <path id="Trazado_509" data-name="Trazado 509" d="M102.739,212.58l-.449.075v10.321q.224.043.449.071Z" transform="translate(-83.743 -172.636)"/>
      <path id="Trazado_510" data-name="Trazado 510" d="M85.874,215.75H85.65v3.978a3.214,3.214,0,0,0,.24,1.212Z" transform="translate(-73.65 -174.558)"/>
      <path id="Trazado_511" data-name="Trazado 511" d="M89.38,222.671c.138.126.291.248.449.366V215.77H89.38Z" transform="translate(-75.912 -174.571)"/>
      <path id="Trazado_512" data-name="Trazado 512" d="M98.432,213.47c-.153.039-.3.087-.452.134v9.518c.15.047.3.091.452.13Z" transform="translate(-81.129 -173.176)"/>
      <path id="Trazado_513" data-name="Trazado 513" d="M107.042,212.2a2.881,2.881,0,0,0-.452.024v10.734c.15,0,.3.02.452.024Z" transform="translate(-86.351 -172.405)"/>
      <path id="Trazado_514" data-name="Trazado 514" d="M93.68,223.338c.146.075.3.15.452.216V215c-.157.071-.3.146-.452.22Z" transform="translate(-78.521 -174.104)"/>
      <path id="Trazado_515" data-name="Trazado 515" d="M88.393,203.728c-3.651,2.085-3.667,5.509-.035,7.614a14.607,14.607,0,0,0,13.181.059c3.647-2.085,3.667-5.509.035-7.61A14.619,14.619,0,0,0,88.393,203.728Z" transform="translate(-73.646 -166.333)" fill="#37474f"/>
      <path id="Trazado_516" data-name="Trazado 516" d="M107.14,206.387a.417.417,0,0,0,0,.787,1.5,1.5,0,0,0,1.365,0,.417.417,0,0,0,0-.787,1.5,1.5,0,0,0-1.365,0Z" transform="translate(-86.515 -168.78)" fill="#e0e0e0"/>
      <path id="Trazado_517" data-name="Trazado 517" d="M96.7,208.407a.417.417,0,0,0,0,.787,1.5,1.5,0,0,0,1.365,0,.413.413,0,0,0,0-.787,1.5,1.5,0,0,0-1.365,0Z" transform="translate(-80.183 -170.005)" fill="#e0e0e0"/>
      <path id="Trazado_518" data-name="Trazado 518" d="M90.24,214.487a.417.417,0,0,0,0,.787,1.519,1.519,0,0,0,1.365,0,.417.417,0,0,0,0-.787A1.5,1.5,0,0,0,90.24,214.487Z" transform="translate(-76.265 -173.693)" fill="#e0e0e0"/>
      <path id="Trazado_519" data-name="Trazado 519" d="M118.756,208.407a.417.417,0,0,1,0,.787,1.5,1.5,0,0,1-1.365,0,.417.417,0,0,1,0-.787A1.5,1.5,0,0,1,118.756,208.407Z" transform="translate(-92.732 -170.005)" fill="#c00"/>
      <path id="Trazado_520" data-name="Trazado 520" d="M107.14,223.794a.417.417,0,0,1,0-.787,1.5,1.5,0,0,1,1.365,0,.417.417,0,0,1,0,.787,1.5,1.5,0,0,1-1.365,0Z" transform="translate(-86.515 -178.861)" fill="#e0e0e0"/>
      <path id="Trazado_521" data-name="Trazado 521" d="M96.7,221.774a.417.417,0,0,1,0-.787,1.5,1.5,0,0,1,1.365,0,.413.413,0,0,1,0,.787,1.5,1.5,0,0,1-1.365,0Z" transform="translate(-80.183 -177.635)" fill="#e0e0e0"/>
      <path id="Trazado_522" data-name="Trazado 522" d="M118.756,221.774a.417.417,0,0,0,0-.787,1.5,1.5,0,0,0-1.365,0,.417.417,0,0,0,0,.787A1.5,1.5,0,0,0,118.756,221.774Z" transform="translate(-92.732 -177.635)" fill="#e0e0e0"/>
      <path id="Trazado_523" data-name="Trazado 523" d="M125.216,214.487a.413.413,0,0,1,0,.787,1.515,1.515,0,0,1-1.365,0,.417.417,0,0,1,0-.787A1.5,1.5,0,0,1,125.216,214.487Z" transform="translate(-96.651 -173.693)" fill="#e0e0e0"/>
      <path id="Trazado_524" data-name="Trazado 524" d="M96.316,213.389h0a12.56,12.56,0,0,1-6.233-1.491c-1.483-.866-2.3-1.967-2.294-3.085s.83-2.207,2.321-3.061a13.736,13.736,0,0,1,12.339.055c1.483.866,2.3,1.967,2.294,3.085s-.83,2.211-2.322,3.061A12.5,12.5,0,0,1,96.316,213.389Zm-.1-8.959a12.418,12.418,0,0,0-6.052,1.42c-1.456.83-2.259,1.885-2.262,2.967s.787,2.14,2.239,2.983a12.449,12.449,0,0,0,6.174,1.479h0a12.461,12.461,0,0,0,6.052-1.42c1.452-.834,2.259-1.885,2.262-2.967s-.787-2.14-2.239-2.986a12.438,12.438,0,0,0-6.174-1.476Z" transform="translate(-74.948 -167.621)" fill="#e0e0e0"/>
      <path id="Trazado_525" data-name="Trazado 525" d="M153.792,253.47a1.907,1.907,0,0,0-1.893.2l-4.545,2.624a5.563,5.563,0,0,0-2.6,4.328,1.637,1.637,0,0,0,.7,1.511c.279.165,1.35.787,1.629.94a1.881,1.881,0,0,0,1.889-.2l4.549-2.625a5.559,5.559,0,0,0,2.593-4.308,1.641,1.641,0,0,0-.7-1.515Z" transform="translate(-109.495 -197.334)" fill="#263238"/>
      <path id="Trazado_526" data-name="Trazado 526" d="M151.487,258.681l4.549-2.628c1.432-.826,2.593-.24,2.593,1.314a5.559,5.559,0,0,1-2.593,4.309l-4.549,2.624c-1.432.83-2.6.24-2.6-1.31A5.57,5.57,0,0,1,151.487,258.681Z" transform="translate(-112.007 -198.776)" fill="#455a64"/>
      <path id="Trazado_527" data-name="Trazado 527" d="M254.111,125.7c0-.15-.161-.272-.476-.334l-6.63-1.271c-.394-.079-.645.059-.645.327v1.18a.787.787,0,0,0,.13.393l1.834,3.179a1.074,1.074,0,0,0,1.468.393l3.954-2.282c.236-.138.35-.279.35-.393Z" transform="translate(-171.125 -118.954)" fill="#263238"/>
      <path id="Trazado_528" data-name="Trazado 528" d="M269.346,137.25a.811.811,0,0,0-.126-.393l-1.834-3.175a1.074,1.074,0,0,0-1.468-.393l-3.958,2.282c-.232.138-.35.279-.35.393v1.18c0,.15.161.275.476.334l6.614,1.275c.413.079.649-.063.649-.33C269.346,138.312,269.346,137.455,269.346,137.25Z" transform="translate(-180.375 -124.455)" fill="#263238"/>
      <path id="Trazado_529" data-name="Trazado 529" d="M249.8,128.392l3.958-2.286c.512-.3.456-.626-.126-.74L247,124.095c-.582-.114-.814.212-.515.724L248.322,128a1.074,1.074,0,0,0,1.479.393Z" transform="translate(-171.124 -118.953)" fill="#37474f"/>
      <path id="Trazado_530" data-name="Trazado 530" d="M261.96,135.57l3.958-2.282a1.074,1.074,0,0,1,1.468.393l1.834,3.175c.3.515.063.838-.519.728l-6.614-1.275C261.5,136.2,261.449,135.869,261.96,135.57Z" transform="translate(-180.375 -124.455)" fill="#37474f"/>
      <path id="Trazado_531" data-name="Trazado 531" d="M304.63,157.25a8.973,8.973,0,0,0-8.086-.692,2.836,2.836,0,0,0-1.873,2.219c0,.142-.059.72-.075.866a2.819,2.819,0,0,0,1.468,2.491,8.973,8.973,0,0,0,8.086.693,2.845,2.845,0,0,0,1.873-2.243c0-.134.059-.7.075-.854A2.86,2.86,0,0,0,304.63,157.25Z" transform="translate(-200.377 -138.258)" fill="#e0e0e0"/>
      <ellipse id="Elipse_6" data-name="Elipse 6" cx="3.313" cy="5.737" rx="3.313" ry="5.737" transform="translate(94.009 23.794) rotate(-85.11)" fill="#fafafa"/>
      <path id="Trazado_532" data-name="Trazado 532" d="M260.246,195.39c1.346-.787,2.436-.15,2.436,1.4a5.375,5.375,0,0,1-2.436,4.214c-1.346.787-2.436.15-2.436-1.4A5.375,5.375,0,0,1,260.246,195.39Z" transform="translate(-178.07 -162.004)" fill="#e0e0e0"/>
      <path id="Trazado_533" data-name="Trazado 533" d="M261.512,195.1a2.019,2.019,0,0,0-1.291.315,5.375,5.375,0,0,0-2.436,4.214.979.979,0,0,0,1.684.992,5.379,5.379,0,0,0,2.436-4.218A1.968,1.968,0,0,0,261.512,195.1Z" transform="translate(-178.053 -162.025)" fill="#fafafa"/>
      <path id="Trazado_534" data-name="Trazado 534" d="M318.778,199.149v1.806c0,1.228-.811,2.451-2.436,3.376a13.043,13.043,0,0,1-11.182.216v-1.834a16.431,16.431,0,0,0,8.157-2.058,10.035,10.035,0,0,0,2.318-1.786c.185.083.362.173.531.268Z" transform="translate(-206.789 -164.32)" fill="#263238"/>
      <path id="Trazado_535" data-name="Trazado 535" d="M316.34,213.322c.134,0,.264.02.393.024h0v-1.822a3.326,3.326,0,0,1-.393-.024Z" transform="translate(-213.57 -171.981)"/>
      <path id="Trazado_536" data-name="Trazado 536" d="M305.12,208.65v1.822l.311.15v-1.834l-.165-.079Z" transform="translate(-206.765 -170.252)"/>
      <path id="Trazado_537" data-name="Trazado 537" d="M320.576,211.53h-.386v1.814h.4Z" transform="translate(-215.905 -171.999)"/>
      <path id="Trazado_538" data-name="Trazado 538" d="M308.71,210.09v1.826l.393.118v-1.822h-.047C308.942,210.165,308.824,210.129,308.71,210.09Z" transform="translate(-208.942 -171.125)"/>
      <path id="Trazado_539" data-name="Trazado 539" d="M335.42,206.429v1.8h0a4.505,4.505,0,0,0,.393-.315h0V206.11l-.169.146C335.581,206.311,335.5,206.37,335.42,206.429Z" transform="translate(-225.143 -168.711)"/>
      <path id="Trazado_540" data-name="Trazado 540" d="M339.23,200.873v1.763a1.967,1.967,0,0,0,.071-.216,2.557,2.557,0,0,0,.075-.3q0-.057,0-.114a2.608,2.608,0,0,0,.035-.394V199.96A2.878,2.878,0,0,1,339.23,200.873Z" transform="translate(-227.453 -164.981)"/>
      <path id="Trazado_541" data-name="Trazado 541" d="M312.825,211.091l-.3-.051v1.818l.2.035.2.031v-1.818Z" transform="translate(-211.259 -171.702)"/>
      <path id="Trazado_542" data-name="Trazado 542" d="M332.014,208.64l-.393.189v1.81l.393-.193Z" transform="translate(-222.838 -170.246)"/>
      <path id="Trazado_543" data-name="Trazado 543" d="M327.82,212.088l.394-.114V210.16c-.13.043-.256.083-.394.118h0Z" transform="translate(-220.533 -171.168)"/>
      <path id="Trazado_544" data-name="Trazado 544" d="M324.393,212.9V211.09l-.393.063v1.81l.275-.039Z" transform="translate(-218.216 -171.732)"/>
      <path id="Trazado_545" data-name="Trazado 545" d="M316.318,198.494a13,13,0,0,1-11.2.2,16.44,16.44,0,0,0,8.157-2.058c2.164-1.251,3.478-2.853,3.817-4.391C319.545,194.119,319.285,196.806,316.318,198.494Z" transform="translate(-206.765 -160.305)" fill="#455a64"/>
      <path id="Trazado_546" data-name="Trazado 546" d="M153.666,147.379l-11.36-6.559-12.386,7.149,11.363,6.559Z" transform="translate(-100.501 -129.111)" fill="#e0e0e0"/>
      <path id="Trazado_547" data-name="Trazado 547" d="M153.666,147.379l-11.36-6.559-12.386,7.149,11.363,6.559Z" transform="translate(-100.501 -129.111)" opacity="0.2"/>
      <path id="Trazado_548" data-name="Trazado 548" d="M171.933,141.049,160.57,134.49a.866.866,0,0,1,.327.787v1.7l11.36,6.559v-1.7A.874.874,0,0,0,171.933,141.049Z" transform="translate(-119.091 -125.272)" fill="#e0e0e0"/>
      <path id="Trazado_549" data-name="Trazado 549" d="M171.933,141.049,160.57,134.49a.866.866,0,0,1,.327.787v1.7l11.36,6.559v-1.7A.874.874,0,0,0,171.933,141.049Z" transform="translate(-119.091 -125.272)" opacity="0.1"/>
      <path id="Trazado_550" data-name="Trazado 550" d="M157.27,160.778v-2.392a3.856,3.856,0,0,1,1.775-3.069l1.625-.94v.692l-1.326.763a3.321,3.321,0,0,0-1.472,2.554v1.354l12.383-7.149v-1.7a.7.7,0,0,0-1.18-.681l-1.916,1.11v-.689l1.625-.936a1.283,1.283,0,0,1,2.074,1.18v2.046Z" transform="translate(-117.09 -134.322)" fill="#fafafa"/>
      <path id="Trazado_551" data-name="Trazado 551" d="M131.766,145.36l-1.621.94a3.856,3.856,0,0,0-1.775,3.069v2.392l11.36,6.559v-2.392a3.856,3.856,0,0,1,1.775-3.069l1.625-.94Z" transform="translate(-99.561 -131.865)" fill="#ebebeb"/>
      <path id="Trazado_552" data-name="Trazado 552" d="M139.76,158.646a3.817,3.817,0,0,1,.858-2.247l-11.363-6.559a3.836,3.836,0,0,0-.854,2.247v2.392l11.36,6.559Z" transform="translate(-99.579 -134.582)" fill="#e0e0e0"/>
      <path id="Trazado_553" data-name="Trazado 553" d="M153.53,135.84l11.363,6.559,0,.689-11.363-6.559Z" transform="translate(-114.821 -126.091)" fill="#f5f5f5"/>
      <path id="Trazado_554" data-name="Trazado 554" d="M156.6,132.945a1.416,1.416,0,0,0-1.444.114L153.53,134l11.36,6.559,1.625-.936a1.424,1.424,0,0,1,1.448-.114Z" transform="translate(-114.821 -124.246)" fill="#ebebeb"/>
    </g>
  </g>
</svg>
