<?xml version="1.0" encoding="utf-8"?>
<!-- Generator: Adobe Illustrator 25.2.0, SVG Export Plug-In . SVG Version: 6.00 Build 0)  -->
<svg version="1.1" id="Capa_1" xmlns="http://www.w3.org/2000/svg" xmlns:xlink="http://www.w3.org/1999/xlink" x="0px" y="0px"
	 viewBox="0 0 730.1 180.2" style="enable-background:new 0 0 730.1 180.2;" xml:space="preserve">
<style type="text/css">
	.st0{enable-background:new    ;}
	.st1{fill:none;stroke:#FFFEFA;}
</style>
<g class="st0">
	<path class="st1" d="M13.8,166.8c-6.3-9-9.4-22.6-9.4-40.9V49.6c0-16.3,3.6-28.7,10.9-37.1C22.6,4.2,33.4,0,47.9,0
		C59.5,0,68.6,2.3,75,7c6.5,4.7,10.9,11.5,13.4,20.4c2.5,8.9,3.7,20.4,3.7,34.4H57.5V45.9c0-4.3-0.6-7.6-1.8-9.9
		c-1.2-2.3-3.3-3.5-6.3-3.5c-6.7,0-10.1,4.4-10.1,13.2v85.7c0,5.4,0.7,9.4,2.1,12.2c1.4,2.7,3.8,4.1,7.2,4.1c3.4,0,5.8-1.4,7.2-4.1
		c1.4-2.7,2.1-6.8,2.1-12.2v-25.3h-9.5V75.6h43.3v103H77.5l-6-14.8c-6.3,11-16.1,16.5-29.3,16.5C29.5,180.2,20,175.8,13.8,166.8z"/>
	<path class="st1" d="M121.6,178.6l17.1-177h59.9l16.9,177H182l-2.5-28.6h-21.4l-2.1,28.6H121.6z M160.7,121.7h16.1l-7.8-90h-1.6
		L160.7,121.7z"/>
	<path class="st1" d="M246.8,178.6V1.6h35.4v146.9h36.5v30.1H246.8z"/>
	<path class="st1" d="M349.2,178.6V1.6h70.9v34.2h-34.8v34.4h33.4v33.4h-33.4v40.6h37.1v34.4H349.2z"/>
	<path class="st1" d="M454.7,1.6h54.4c8.7,0,15.3,2,20.1,5.9s7.9,9.4,9.6,16.5c1.6,7.1,2.5,16.1,2.5,27.1c0,10-1.3,17.9-3.9,23.5
		c-2.6,5.6-7.1,9.5-13.6,11.7c5.4,1.1,9.2,3.8,11.6,8c2.4,4.3,3.6,10,3.6,17.3l-0.4,67h-34.6v-69.2c0-4.9-1-8.1-2.9-9.5
		c-1.9-1.4-5.4-2.1-10.5-2.1v80.8h-35.8V1.6z M499.2,67.2c4.9,0,7.4-5.4,7.4-16.1c0-4.7-0.2-8.2-0.6-10.5c-0.4-2.3-1.2-3.9-2.3-4.8
		c-1.1-0.9-2.7-1.3-4.7-1.3h-8.2v32.8H499.2z"/>
	<path class="st1" d="M571.9,178.6V1.6h34.2v177H571.9z"/>
	<path class="st1" d="M636.2,178.6l17.1-177h59.9l16.9,177h-33.6l-2.5-28.6h-21.4l-2.1,28.6H636.2z M675.3,121.7h16.1l-7.8-90h-1.6
		L675.3,121.7z"/>
</g>
</svg>
