<?xml version="1.0" encoding="utf-8"?>
<!-- Generator: Adobe Illustrator 25.2.0, SVG Export Plug-In . SVG Version: 6.00 Build 0)  -->
<svg version="1.1" id="Capa_1" xmlns="http://www.w3.org/2000/svg" xmlns:xlink="http://www.w3.org/1999/xlink" x="0px" y="0px"
	 viewBox="0 0 657.9 391" style="enable-background:new 0 0 657.9 391;" xml:space="preserve">
<style type="text/css">
	.st0{fill:none;stroke:#FFFFFF;stroke-width:0.75;stroke-miterlimit:10;}
</style>
<g>
	<g>
		<path class="st0" d="M17,380.6c-7.2-8-10.8-21-10.8-38.9v-17.5h35.2v22.3c0,8.9,2.8,13.3,8.5,13.3c3.2,0,5.4-0.9,6.7-2.8
			s1.9-5,1.9-9.5c0-5.8-0.7-10.6-2.1-14.5c-1.4-3.8-3.2-7-5.3-9.6c-2.2-2.6-6-6.6-11.5-12l-15.4-15.4
			c-11.9-11.6-17.9-24.5-17.9-38.7c0-15.3,3.5-26.9,10.5-34.8c7-8,17.2-12,30.7-12c16.1,0,27.7,4.3,34.7,12.8
			c7.1,8.5,10.6,21.9,10.6,40H56.4l-0.2-12.3c0-2.4-0.7-4.2-2-5.6c-1.3-1.4-3.2-2.1-5.5-2.1c-2.8,0-4.9,0.8-6.2,2.3
			c-1.4,1.5-2.1,3.6-2.1,6.2c0,5.8,3.3,11.9,10,18.1l20.8,20c4.9,4.7,8.9,9.2,12.1,13.4c3.2,4.2,5.8,9.2,7.7,15
			c1.9,5.8,2.9,12.6,2.9,20.5c0,17.6-3.2,31-9.7,40c-6.4,9.1-17.1,13.6-31.9,13.6C36,392.6,24.2,388.6,17,380.6z"/>
		<path class="st0" d="M126.4,391V212.3H162v63.9h16.8v-63.9h35.6V391h-35.6v-81.1H162V391H126.4z"/>
		<path class="st0" d="M249.4,391V212.3h34.5V391H249.4z"/>
		<path class="st0" d="M319.1,391V212.3h54.5l15,109l15-109h54.9V391h-32.7V262.2L405.2,391h-32l-21.8-128.8V391H319.1z"/>
		<path class="st0" d="M490.2,391l17.3-178.7H568L585.1,391h-33.9l-2.5-28.9h-21.6L525,391H490.2z M529.8,333.5H546l-7.9-90.9h-1.7
			L529.8,333.5z"/>
	</g>
	<g>
		<path class="st0" d="M613,391V212.3h34.5V391H613z"/>
	</g>
	<g>
		<path class="st0" d="M16.5,172.3c-7.4-8.2-11.1-21.5-11.1-39.8v-17.9h36v22.8c0,9.1,2.9,13.6,8.7,13.6c3.3,0,5.5-1,6.8-2.9
			s1.9-5.1,1.9-9.7c0-6-0.7-10.9-2.1-14.8c-1.4-3.9-3.2-7.2-5.4-9.8c-2.2-2.6-6.1-6.7-11.8-12.2L23.8,85.8
			C11.6,73.9,5.5,60.7,5.5,46.2c0-15.6,3.6-27.5,10.8-35.7C23.4,2.4,33.9-1.7,47.6-1.7c16.5,0,28.3,4.4,35.6,13.1
			c7.2,8.7,10.9,22.4,10.9,41H56.8l-0.2-12.6c0-2.4-0.7-4.3-2-5.8c-1.4-1.4-3.2-2.1-5.6-2.1c-2.8,0-5,0.8-6.4,2.3
			c-1.4,1.6-2.1,3.7-2.1,6.4c0,6,3.4,12.1,10.2,18.5l21.3,20.4c5,4.8,9.1,9.4,12.4,13.7c3.3,4.3,5.9,9.4,7.9,15.3c2,5.9,3,12.9,3,21
			c0,18-3.3,31.7-9.9,41c-6.6,9.3-17.5,14-32.7,14C35.9,184.7,23.9,180.6,16.5,172.3z"/>
		<path class="st0" d="M138.6,171.1c-7.7-9-11.5-21.7-11.5-38V46c0-15.8,3.8-27.7,11.5-35.7c7.7-8,18.9-12,33.7-12
			c14.8,0,26,4,33.7,12c7.7,8,11.5,19.9,11.5,35.7v87.1c0,16.5-3.8,29.2-11.5,38.1s-18.9,13.4-33.7,13.4
			C157.5,184.7,146.3,180.2,138.6,171.1z M178.9,146.8c1.1-2.8,1.7-6.8,1.7-11.9V45.4c0-4-0.5-7.2-1.6-9.7c-1.1-2.5-3.2-3.7-6.5-3.7
			c-6.1,0-9.2,4.6-9.2,13.8V135c0,5.3,0.6,9.2,1.9,11.9c1.3,2.7,3.6,4,7,4C175.5,151,177.7,149.6,178.9,146.8z"/>
		<path class="st0" d="M253.4,183V0h55.8l15.3,111.6L339.9,0h56.2v183h-33.4V51.1L341.6,183h-32.8L286.4,51.1V183H253.4z"/>
		<path class="st0" d="M443.6,171.1c-7.7-9-11.5-21.7-11.5-38V46c0-15.8,3.8-27.7,11.5-35.7c7.7-8,18.9-12,33.7-12
			c14.8,0,26,4,33.7,12c7.7,8,11.5,19.9,11.5,35.7v87.1c0,16.5-3.8,29.2-11.5,38.1s-18.9,13.4-33.7,13.4
			C462.5,184.7,451.3,180.2,443.6,171.1z M483.9,146.8c1.1-2.8,1.7-6.8,1.7-11.9V45.4c0-4-0.5-7.2-1.6-9.7c-1.1-2.5-3.2-3.7-6.5-3.7
			c-6.1,0-9.2,4.6-9.2,13.8V135c0,5.3,0.6,9.2,1.9,11.9c1.3,2.7,3.6,4,7,4C480.5,151,482.7,149.6,483.9,146.8z"/>
		<path class="st0" d="M565.9,172.3c-7.4-8.2-11.1-21.5-11.1-39.8v-17.9h36v22.8c0,9.1,2.9,13.6,8.7,13.6c3.3,0,5.5-1,6.8-2.9
			c1.3-1.9,1.9-5.1,1.9-9.7c0-6-0.7-10.9-2.1-14.8c-1.4-3.9-3.2-7.2-5.4-9.8c-2.2-2.6-6.1-6.7-11.8-12.2l-15.8-15.8
			c-12.2-11.9-18.3-25.1-18.3-39.6c0-15.6,3.6-27.5,10.8-35.7c7.2-8.2,17.6-12.2,31.4-12.2c16.5,0,28.3,4.4,35.6,13.1
			c7.2,8.7,10.9,22.4,10.9,41h-37.3l-0.2-12.6c0-2.4-0.7-4.3-2-5.8c-1.4-1.4-3.2-2.1-5.6-2.1c-2.8,0-5,0.8-6.4,2.3
			c-1.4,1.6-2.1,3.7-2.1,6.4c0,6,3.4,12.1,10.2,18.5l21.3,20.4c5,4.8,9.1,9.4,12.4,13.7c3.3,4.3,5.9,9.4,7.9,15.3c2,5.9,3,12.9,3,21
			c0,18-3.3,31.7-9.9,41c-6.6,9.3-17.5,14-32.7,14C585.3,184.7,573.3,180.6,565.9,172.3z"/>
	</g>
</g>
</svg>
