<svg id="Mobile_Marketing-pana" data-name="Mobile Marketing-pana" xmlns="http://www.w3.org/2000/svg" width="169.06" height="169.683" viewBox="0 0 169.06 169.683">
  <g id="freepik--background-complete--inject-3" transform="translate(7.793 0)">
    <path id="Trazado_215" data-name="Trazado 215" d="M115.08,83.909h0a13.03,13.03,0,0,1-13.03-13.03h0a13.03,13.03,0,0,1,13.03-13.03h0a13.03,13.03,0,0,1,13.03,13.03h0A13.03,13.03,0,0,1,115.08,83.909Z" transform="translate(-81.49 -44.934)" fill="#ebebeb"/>
    <rect id="Rectángulo_794" data-name="Rectángulo 794" width="2.696" height="8.713" transform="translate(27.679 23.043)" fill="#fff"/>
    <path id="Trazado_216" data-name="Trazado 216" d="M121.684,76.238a1.609,1.609,0,1,0-1.594-1.609A1.609,1.609,0,0,0,121.684,76.238Z" transform="translate(-92.669 -54.335)" fill="#fff"/>
    <path id="Trazado_217" data-name="Trazado 217" d="M134.98,88.184c0-1.225.563-1.955,1.643-1.955.989,0,1.468.7,1.468,1.955v4.564h2.681V87.241c0-2.335-1.32-3.461-3.168-3.461a3.043,3.043,0,0,0-2.624,1.438V84.046h-2.59v8.709h2.59Z" transform="translate(-100.291 -61.002)" fill="#fff"/>
    <path id="Trazado_218" data-name="Trazado 218" d="M174,23.89l1.784,3.259,3.263,1.787-3.263,1.784L174,33.98l-1.784-3.259-3.263-1.784,3.263-1.787Z" transform="translate(-122.947 -23.89)" fill="#f5f5f5"/>
    <path id="Trazado_219" data-name="Trazado 219" d="M371.7,256.27l1.339,2.449,2.445,1.335-2.445,1.339-1.339,2.449-1.339-2.449-2.445-1.339,2.445-1.335Z" transform="translate(-246.245 -167.892)" fill="#ebebeb"/>
    <path id="Trazado_220" data-name="Trazado 220" d="M385.038,224.51l.6,1.1,1.1.6-1.1.6-.6,1.1-.6-1.1-1.107-.6,1.107-.6Z" transform="translate(-255.794 -148.211)" fill="#e0e0e0"/>
    <path id="Trazado_221" data-name="Trazado 221" d="M145.928,27.11l.6,1.107,1.1.6-1.1.6-.6,1.1-.6-1.1-1.107-.6,1.107-.6Z" transform="translate(-107.622 -25.885)" fill="#e0e0e0"/>
    <path id="Trazado_222" data-name="Trazado 222" d="M56.03,284.385a3.951,3.951,0,0,0,2.3-3.681,3.706,3.706,0,1,0-7.4.065,3.933,3.933,0,0,0,2.4,3.651c-5.682.932-5.347,7.116-5.347,7.116l13.459-.114S61.685,285.164,56.03,284.385Z" transform="translate(-47.99 -180.607)" fill="#e0e0e0"/>
    <path id="Trazado_223" data-name="Trazado 223" d="M395.125,401.177a2.1,2.1,0,0,0-4.134.122,2.1,2.1,0,0,0-4.134-.1,2.826,2.826,0,0,0,.51,2.042,8.3,8.3,0,0,0,1.476,1.559c.761.673,1.449,1.3,2.2,1.97.761-.677,1.381-1.312,2.126-1.989a8.212,8.212,0,0,0,1.464-1.574,2.834,2.834,0,0,0,.491-2.031Z" transform="translate(-257.963 -256.637)" fill="#ebebeb"/>
    <path id="Trazado_224" data-name="Trazado 224" d="M431.69,179.776l1.441-.285,2.282-5.013-.57-2.879s2.2-.578,2.689,3.244.578,2.807.578,2.807,4.735-.92,5.21-.59c.346.243,1.407,4.921,1.962,7.462a2.811,2.811,0,0,1-1.4,3.168,1.975,1.975,0,0,1-.5.167c-1.179.236-7.4.472-7.4.472l-2.491.494Z" transform="translate(-285.762 -115.403)" fill="#e0e0e0"/>
    <path id="Trazado_225" data-name="Trazado 225" d="M420.42,192.464l2.841,9.691,2.472-.491L423.816,192Z" transform="translate(-278.778 -128.065)" fill="#e0e0e0"/>
  </g>
  <g id="freepik--Floor--inject-3" transform="translate(0 169.306)">
    <path id="Trazado_226" data-name="Trazado 226" d="M195.969,469.159c0,.057-37.716.1-84.229.1s-84.24-.042-84.24-.1,37.709-.1,84.24-.1S195.969,469.106,195.969,469.159Z" transform="translate(-27.5 -469.06)" fill="#263238"/>
  </g>
  <g id="freepik--Icons--inject-3" transform="translate(7.895 31.216)">
    <path id="Trazado_227" data-name="Trazado 227" d="M357.236,135.322h0a15.456,15.456,0,0,1-20.655-7.139h0a15.456,15.456,0,0,1,7.139-20.655h0a15.452,15.452,0,0,1,20.655,7.139h0A15.452,15.452,0,0,1,357.236,135.322Z" transform="translate(-225.961 -105.968)" fill="#c00"/>
    <path id="Trazado_228" data-name="Trazado 228" d="M358.652,135.065a.38.38,0,0,0,.361-.468c-.038-.186-.141-.658-.179-.852a.517.517,0,0,0-.38-.464,3.043,3.043,0,0,1-1.521-1.555,4.991,4.991,0,0,1,2.461-6.808c2.544-1.24,4.7-.38,5.7,1.711,1.327,2.734,1.24,5.629-.555,6.5a1.632,1.632,0,0,1-2.385-1.1,22.692,22.692,0,0,0-.8-3.769,1.424,1.424,0,0,0-1.97-.8c-1.015.494-1.32,1.94-.635,3.343a4.062,4.062,0,0,0,1.031,1.354s1.1,4.9,1.293,5.758a12.02,12.02,0,0,0,1.723,3.617.145.145,0,0,0,.255-.057,11.2,11.2,0,0,0,.2-3.932c-.087-.479-.6-2.932-.6-2.932a3.021,3.021,0,0,0,2.89.057c3.043-1.483,3.765-5.267,1.955-8.987-1.365-2.811-5.024-4.271-8.641-2.51-4.507,2.191-5.207,6.522-3.9,9.215C355.753,134.019,357.066,135.183,358.652,135.065Z" transform="translate(-237.954 -116.155)" fill="#fff"/>
    <path id="Trazado_229" data-name="Trazado 229" d="M422.831,264.168h0a10.649,10.649,0,0,1-6.15-13.76h0a10.649,10.649,0,0,1,13.756-6.154h0a10.649,10.649,0,0,1,6.15,13.76h0a10.649,10.649,0,0,1-13.756,6.154Z" transform="translate(-276.127 -191.226)" fill="#c00"/>
    <path id="Trazado_230" data-name="Trazado 230" d="M437.28,263.977a5.739,5.739,0,0,0-10.676-4.184c-.034.076-.065.156-.1.232a5.637,5.637,0,0,0-.281,3.043l-2.057,2.483,3.331.19a5.739,5.739,0,0,0,9.729-1.62A1.383,1.383,0,0,0,437.28,263.977Zm-7.12,2.56a4.792,4.792,0,0,1-2.194-1.689l-1.943-.11,1.2-1.445a4.741,4.741,0,0,1,.141-2.951c.057-.145.122-.289.19-.426a4.826,4.826,0,0,1,8.945,3.514c-.034.122-.072.24-.118.357A4.811,4.811,0,0,1,430.16,266.537Z" transform="translate(-281.205 -199.182)" fill="#fff" fill-rule="evenodd"/>
    <path id="Trazado_231" data-name="Trazado 231" d="M442.77,268.2c-.11-.114-.631-.677-.738-.761s-.183-.145-.319-.046-.506.293-.612.35-.19.038-.3-.076a3.84,3.84,0,0,1-.81-1.053,4.177,4.177,0,0,1-.38-1.179c-.023-.16.068-.205.16-.243s.19-.1.285-.152l.072-.046a1.342,1.342,0,0,0,.141-.125.247.247,0,0,0,.08-.232c0-.076-.027-.821-.038-1.122s-.137-.3-.213-.331-.16-.076-.247-.106a.521.521,0,0,0-.415.027,1.582,1.582,0,0,0-.875.917,1.771,1.771,0,0,0-.1.468,3.142,3.142,0,0,0,.126,1.084,5.8,5.8,0,0,0,1.491,2.826c1.133,1.034,1.206.859,1.457.928a1.4,1.4,0,0,0,1.141-.281,1.141,1.141,0,0,0,.316-.589A1.716,1.716,0,0,0,442.77,268.2Z" transform="translate(-290.057 -203.308)" fill="#fff" fill-rule="evenodd"/>
    <path id="Trazado_232" data-name="Trazado 232" d="M56.387,141.755h0a8.127,8.127,0,0,1-8.127-8.127h0a8.127,8.127,0,0,1,8.127-8.127h0a8.127,8.127,0,0,1,8.127,8.127h0a8.127,8.127,0,0,1-8.127,8.127Z" transform="translate(-48.26 -118.072)" fill="#c00"/>
    <path id="Trazado_233" data-name="Trazado 233" d="M58.25,143.842a5.058,5.058,0,0,0,7.774-4.488,3.644,3.644,0,0,0,.879-.909,3.669,3.669,0,0,1-1.023.281,1.787,1.787,0,0,0,.791-.97,3.476,3.476,0,0,1-1.141.43,1.78,1.78,0,0,0-3.043,1.624,5.054,5.054,0,0,1-3.662-1.86,1.784,1.784,0,0,0,.551,2.373,1.75,1.75,0,0,1-.806-.221A1.78,1.78,0,0,0,60,141.868a1.776,1.776,0,0,1-.8.03,1.78,1.78,0,0,0,1.658,1.232A3.571,3.571,0,0,1,58.25,143.842Z" transform="translate(-54.451 -125.575)" fill="#fff"/>
    <path id="Trazado_234" data-name="Trazado 234" d="M79.926,362.608h0a14,14,0,0,1-16.848-10.371h0a14,14,0,0,1,10.383-16.863h0A14,14,0,0,1,90.32,345.745h0a14,14,0,0,1-10.394,16.863Z" transform="translate(-57.206 -247.888)" fill="#455a64"/>
    <path id="Trazado_235" data-name="Trazado 235" d="M84.574,352.227c1.993-.475,2.232-.525,3.043-.677a4.251,4.251,0,0,1,1.445-.072,2.392,2.392,0,0,1,.993.354,2.445,2.445,0,0,1,.761.726,4.267,4.267,0,0,1,.586,1.324c.224.78.289,1.016.761,3.008s.521,2.233.673,3.043a4.154,4.154,0,0,1,.072,1.445,2.283,2.283,0,0,1-.354.993,2.392,2.392,0,0,1-.723.761,4.3,4.3,0,0,1-1.327.586c-.761.224-1.012.289-3,.761s-2.232.525-3.043.677a4.185,4.185,0,0,1-1.449.072,2.358,2.358,0,0,1-.993-.354,2.313,2.313,0,0,1-.738-.749,4.207,4.207,0,0,1-.589-1.324c-.221-.78-.285-1.012-.761-3s-.525-2.232-.677-3.043a4.381,4.381,0,0,1-.072-1.449,2.525,2.525,0,0,1,1.08-1.753,4.246,4.246,0,0,1,1.324-.59c.761-.221,1.015-.285,3.008-.761m-.319-1.346c-2.027.483-2.282.552-3.069.78a5.558,5.558,0,0,0-1.73.761,3.94,3.94,0,0,0-1.662,2.7,5.649,5.649,0,0,0,.084,1.9c.156.8.205,1.061.688,3.088s.551,2.282.761,3.065a5.518,5.518,0,0,0,.761,1.73,3.769,3.769,0,0,0,1.2,1.145,3.726,3.726,0,0,0,1.521.544,5.626,5.626,0,0,0,1.9-.084c.8-.152,1.061-.205,3.088-.688s2.282-.551,3.065-.761a5.705,5.705,0,0,0,1.73-.761,3.769,3.769,0,0,0,1.118-1.175,3.83,3.83,0,0,0,.548-1.521,5.644,5.644,0,0,0-.087-1.9c-.152-.806-.205-1.061-.688-3.088s-.551-2.282-.761-3.069a5.743,5.743,0,0,0-.761-1.73,3.757,3.757,0,0,0-1.175-1.114,3.7,3.7,0,0,0-1.521-.548,5.623,5.623,0,0,0-1.9.084c-.806.156-1.061.205-3.088.688" transform="translate(-66.543 -257.242)" fill="#fff"/>
    <path id="Trazado_236" data-name="Trazado 236" d="M92.167,361.555a3.94,3.94,0,1,0,4.746,2.921,3.94,3.94,0,0,0-4.746-2.921m1.521,6.325a2.559,2.559,0,1,1,1.591-1.148,2.559,2.559,0,0,1-1.591,1.148" transform="translate(-73.592 -264.284)" fill="#fff"/>
    <path id="Trazado_237" data-name="Trazado 237" d="M106.88,357.122a.917.917,0,1,1-.412-.574.92.92,0,0,1,.412.574" transform="translate(-83.46 -261.163)" fill="#fff"/>
    <path id="Trazado_238" data-name="Trazado 238" d="M376.17,353.953h0a6.526,6.526,0,0,1-6.53-6.526h0a6.526,6.526,0,0,1,6.53-6.526h0a6.526,6.526,0,0,1,6.538,6.526h0a6.526,6.526,0,0,1-6.538,6.526Z" transform="translate(-247.414 -251.551)" fill="#455a64"/>
    <path id="Trazado_239" data-name="Trazado 239" d="M382.833,355.59h1.59v-3.967h1.107l.122-1.331h-1.229v-.761c0-.312.065-.437.38-.437h.863V347.71h-1.1c-1.183,0-1.715.521-1.715,1.521V350.3H382v1.327h.825Z" transform="translate(-255.073 -255.771)" fill="#fff"/>
  </g>
  <g id="freepik--Device--inject-3" transform="translate(50.537 15.376)">
    <path id="Trazado_240" data-name="Trazado 240" d="M224.232,218.626l-52.442-.019a11.409,11.409,0,0,1-11.41-11.41L160.4,75.73a11.41,11.41,0,0,1,11.432-11.41l52.438.03a11.41,11.41,0,0,1,11.41,11.41L235.66,207.2a11.41,11.41,0,0,1-11.429,11.429Z" transform="translate(-160.38 -64.32)" fill="#263238"/>
    <path id="Trazado_241" data-name="Trazado 241" d="M229.862,76.477h-10.17a2.529,2.529,0,0,0-2.468,2.571v1.845a2.522,2.522,0,0,1-2.468,2.579H194.937a2.525,2.525,0,0,1-2.468-2.582V79.032A2.533,2.533,0,0,0,190,76.45H177.522a7.987,7.987,0,0,0-8.006,7.987L169.49,212.76a7.987,7.987,0,0,0,7.987,7.987l52.339.03a7.987,7.987,0,0,0,7.987-7.987l.027-128.327A7.987,7.987,0,0,0,229.862,76.477Z" transform="translate(-166.025 -71.837)" fill="#fff"/>
    <path id="Trazado_242" data-name="Trazado 242" d="M320.616,103.862c0,.034-1.324.072-2.951.084s-2.955,0-2.955-.034,1.32-.076,2.951-.087S320.616,103.828,320.616,103.862Z" transform="translate(-256.016 -88.798)" fill="#263238"/>
    <path id="Trazado_243" data-name="Trazado 243" d="M320.646,107.829c0,.034-1.32.072-2.951.087s-2.955,0-2.955-.038,1.324-.072,2.955-.087S320.646,107.8,320.646,107.829Z" transform="translate(-256.034 -91.255)" fill="#263238"/>
    <path id="Trazado_244" data-name="Trazado 244" d="M320.68,111.8c0,.034-1.323.076-2.955.087s-2.951,0-2.955-.038,1.323-.072,2.955-.087S320.68,111.765,320.68,111.8Z" transform="translate(-256.053 -93.715)" fill="#263238"/>
    <path id="Trazado_245" data-name="Trazado 245" d="M183.994,105.757h.586l1.59-.038-.046.042c0-.35,0-.734-.019-1.141v-.662a.612.612,0,0,1,.532-.491h.761a.62.62,0,0,1,.521.612c0,.54,0,1.1.019,1.681l-.072-.072h2l-.076.076c0-.806,0-1.643-.023-2.5v-.635a.635.635,0,0,0-.281-.472l-.875-.867-.848-.833-.407-.4c-.141-.137-.251-.278-.415-.312a.544.544,0,0,0-.46.087c-.122.1-.251.247-.38.38l-.723.726c-.453.468-.924.9-1.266,1.3a1.43,1.43,0,0,0-.1.761v2.571a2.109,2.109,0,0,1,0,.262,2.164,2.164,0,0,1,0-.24v-.719c0-.285,0-.711-.027-1.141v-1.1a.829.829,0,0,1,.11-.418c.38-.453.814-.856,1.27-1.339l.715-.734c.129-.126.232-.251.38-.38a.681.681,0,0,1,.582-.118,1.115,1.115,0,0,1,.483.346l.411.4.848.833.879.86a1.756,1.756,0,0,1,.224.243.658.658,0,0,1,.106.338v.639c0,.856,0,1.692.019,2.5v.076H187.8v-1.753a.483.483,0,0,0-.4-.487h-.73a.491.491,0,0,0-.43.38v1.826H184.15A.873.873,0,0,1,183.994,105.757Z" transform="translate(-175.011 -86.197)" fill="#263238"/>
    <path id="Trazado_246" data-name="Trazado 246" d="M252.208,379.249a3.183,3.183,0,0,1-.551.038l-1.5.03c-1.263.019-3.012.031-4.944.031s-3.681,0-4.944-.031l-1.5-.03a3.229,3.229,0,0,1-.551-.038,2.8,2.8,0,0,1,.551-.038l1.5-.034c1.263,0,3.012-.027,4.944-.027s3.678,0,4.944.027l1.5.034A2.754,2.754,0,0,1,252.208,379.249Z" transform="translate(-208.616 -259.414)" fill="#455a64"/>
    <path id="Trazado_247" data-name="Trazado 247" d="M274.173,388.289c0,.057-8.051.1-17.981.1s-17.981-.042-17.981-.1,8.051-.1,17.981-.1S274.173,388.236,274.173,388.289Z" transform="translate(-208.61 -265.016)" fill="#455a64"/>
    <path id="Trazado_248" data-name="Trazado 248" d="M262.935,396.839c0,.057-5.534.1-12.36.1s-12.364-.042-12.364-.1,5.534-.1,12.364-.1S262.935,396.77,262.935,396.839Z" transform="translate(-208.61 -270.315)" fill="#455a64"/>
    <path id="Trazado_249" data-name="Trazado 249" d="M331.083,408.2l-1.118-1.122L328.9,408.14v-3.21h2.179Zm-1.118-1.263.034.034.985.989v-2.928H329V407.9Z" transform="translate(-264.809 -275.39)" fill="#263238"/>
    <path id="Trazado_250" data-name="Trazado 250" d="M253.365,408.947l-.38-.175a1.008,1.008,0,1,1,.3-.221Zm-.917-2.137a1.023,1.023,0,0,0,.019,2.042,1.089,1.089,0,0,0,.491-.156h0l.293.129-.068-.285h0a1.019,1.019,0,0,0-.761-1.708Z" transform="translate(-216.843 -276.555)" fill="#263238"/>
    <path id="Trazado_251" data-name="Trazado 251" d="M260.957,408.964l-.449-1.1-.848-.761h2.054Zm-1.107-1.8.723.662.38.939.647-1.616Z" transform="translate(-221.902 -276.735)" fill="#263238"/>
    <rect id="Rectángulo_795" data-name="Rectángulo 795" width="1.339" height="0.076" transform="translate(38.646 131.07) rotate(-33.05)" fill="#263238"/>
    <path id="Trazado_252" data-name="Trazado 252" d="M243.8,406.833a1.405,1.405,0,0,1-1.869-.507.635.635,0,0,0-.637.526.863.863,0,0,0,.156.62,2.507,2.507,0,0,0,.449.472c.232.2.441.38.669.593.228-.205.418-.4.647-.6a2.508,2.508,0,0,0,.441-.479A.844.844,0,0,0,243.8,406.833Z" transform="translate(-210.519 -276.255)" fill="#c00"/>
    <path id="Trazado_253" data-name="Trazado 253" d="M241.449,387.643v-1.4c0-.917,0-2.282-.019-4.016,0-3.5-.019-8.58-.034-14.958l.065.065-60.817.034h0l.1-.1v20.374l-.1-.1,43.52.042,12.7.027h.057l-12.684.027-43.584.046h-.1V367.17h.106l60.817.034h.065v.065c0,6.393-.027,11.493-.034,15V387.3A.735.735,0,0,1,241.449,387.643Z" transform="translate(-172.885 -251.991)" fill="#263238"/>
    <rect id="Rectángulo_796" data-name="Rectángulo 796" width="13.471" height="16.848" transform="matrix(0.006, -1, 1, 0.006, 10.199, 132.155)" fill="#ebebeb"/>
    <path id="Trazado_254" data-name="Trazado 254" d="M203.866,376.273h-4.7L187,376.246l.091-.087c-.019,4.012-.042,8.607-.065,13.467.019.027-.186-.186-.1-.1h4.583l4.374.027,7.888.057-.08.084c.038-4.047.072-7.4.1-9.759,0-1.171.027-2.092.034-2.734v12.573h-.084l-7.888-.03-4.374-.023h-4.583l-.1-.1c.034-4.864.061-9.459.087-13.467v-.091h.091l12.208.11,3.423.046h1.13Z" transform="translate(-176.746 -257.5)" fill="#263238"/>
    <rect id="Rectángulo_797" data-name="Rectángulo 797" width="11.775" height="15.665" transform="matrix(0.006, -1, 1, 0.006, 10.786, 131.311)" fill="#e0e0e0"/>
    <path id="Trazado_255" data-name="Trazado 255" d="M188.72,397.687l5.515-7.287L197.6,395l2.312-2.434,4.476,5.214Z" transform="translate(-177.942 -266.386)" fill="#f5f5f5"/>
    <path id="Trazado_256" data-name="Trazado 256" d="M211.9,386.1a1.232,1.232,0,1,1-.357-.875A1.236,1.236,0,0,1,211.9,386.1Z" transform="translate(-190.775 -262.953)" fill="#f5f5f5"/>
    <path id="Trazado_257" data-name="Trazado 257" d="M233.225,146.74a.547.547,0,0,1-.183,0l-.513.019-1.9.034c-1.6,0-3.8.027-6.26.027s-4.659,0-6.26-.027l-1.9-.034-.517-.019a.51.51,0,0,1-.179,0,.661.661,0,0,1,.179-.019h.517l1.9-.03c1.6-.019,3.8-.03,6.26-.03s4.659,0,6.26.03l1.9.03h.513a.711.711,0,0,1,.183.019Z" transform="translate(-194.543 -115.345)" fill="#263238"/>
    <path id="Trazado_258" data-name="Trazado 258" d="M322.244,334.737l-1.658-1.666L319,334.649V329.88h3.24Zm-1.658-1.871.049.049,1.464,1.468v-4.351h-2.951V334.3Z" transform="translate(-258.674 -228.883)" fill="#263238"/>
    <path id="Trazado_259" data-name="Trazado 259" d="M210.47,334.482l-.761-.346a1.962,1.962,0,1,1,.6-.43Zm-1.814-4.2a2.008,2.008,0,1,0,.034,4.016,2.087,2.087,0,0,0,.966-.3l.034-.019.57.255-.129-.563.027-.027a2,2,0,0,0-1.5-3.358Z" transform="translate(-189.062 -229.13)" fill="#263238"/>
    <path id="Trazado_260" data-name="Trazado 260" d="M225.626,334.393l-.89-2.172L223.07,330.7l4.047-.03Zm-2.179-3.548,1.422,1.3L225.63,334l1.27-3.179Z" transform="translate(-199.228 -229.372)" fill="#263238"/>
    <rect id="Rectángulo_798" data-name="Rectángulo 798" width="2.632" height="0.148" transform="translate(25.602 102.726) rotate(-33.05)" fill="#263238"/>
    <path id="Trazado_261" data-name="Trazado 261" d="M191.862,330.356a1.251,1.251,0,0,0-2.468.08,1.251,1.251,0,0,0-2.468-.042,1.692,1.692,0,0,0,.308,1.217,5.143,5.143,0,0,0,.886.932c.453.38.867.761,1.32,1.168.441-.4.822-.783,1.266-1.19a5.121,5.121,0,0,0,.871-.943A1.7,1.7,0,0,0,191.862,330.356Z" transform="translate(-176.821 -228.552)" fill="#c00"/>
    <ellipse id="Elipse_4" data-name="Elipse 4" cx="2.746" cy="2.746" rx="2.746" ry="2.746" transform="translate(11.927 28.649)" fill="#ebebeb"/>
    <path id="Trazado_262" data-name="Trazado 262" d="M241.048,301.089c0,.057-11.508.1-25.7.1s-25.706-.046-25.706-.1,11.508-.1,25.706-.1S241.048,301.036,241.048,301.089Z" transform="translate(-178.512 -210.98)" fill="#455a64"/>
    <path id="Trazado_263" data-name="Trazado 263" d="M241.048,289.839c0,.053-11.508.1-25.7.1s-25.706-.046-25.706-.1,11.508-.1,25.706-.1S241.048,289.786,241.048,289.839Z" transform="translate(-178.512 -204.009)" fill="#455a64"/>
    <path id="Trazado_264" data-name="Trazado 264" d="M217.62,312.5c0,.053-6.264.1-13.988.1s-13.992-.046-13.992-.1,6.264-.1,13.992-.1S217.62,312.446,217.62,312.5Z" transform="translate(-178.512 -218.051)" fill="#455a64"/>
    <path id="Trazado_265" data-name="Trazado 265" d="M250.571,433.474a1.1,1.1,0,1,1-.312-.783A1.1,1.1,0,0,1,250.571,433.474Z" transform="translate(-214.912 -292.388)" fill="#263238"/>
    <path id="Trazado_266" data-name="Trazado 266" d="M259.443,433.514a1.1,1.1,0,1,1-.311-.784A1.092,1.092,0,0,1,259.443,433.514Z" transform="translate(-220.415 -292.413)" fill="#263238"/>
    <path id="Trazado_267" data-name="Trazado 267" d="M268.373,433.554a1.1,1.1,0,1,1-.312-.783A1.092,1.092,0,0,1,268.373,433.554Z" transform="translate(-225.949 -292.437)" fill="#263238"/>
    <rect id="Rectángulo_799" data-name="Rectángulo 799" width="60.824" height="37.195" transform="translate(8.105 36.826)" fill="#e0e0e0"/>
    <path id="Trazado_268" data-name="Trazado 268" d="M196.46,220.969l17.426-23.329,10.809,14.589,7.321-7.8,14.365,16.529Z" transform="translate(-182.738 -146.936)" fill="#f5f5f5"/>
    <path id="Trazado_269" data-name="Trazado 269" d="M269.925,183.709a3.933,3.933,0,1,1-3.933-3.929A3.933,3.933,0,0,1,269.925,183.709Z" transform="translate(-223.389 -135.868)" fill="#f5f5f5"/>
    <path id="Trazado_270" data-name="Trazado 270" d="M241.96,212.578c0-.795-.038-34.4-.091-84.142l.091.091H181.144l.1-.1V212.57l-.084-.08,60.824.08-60.824.084h-.08v-.084c0-23.553,0-52.674-.019-84.142v-.1h61.014v.087c-.019,24.9-.034,45.942-.046,60.767,0,7.4-.019,13.246-.023,17.247v5.735A1.5,1.5,0,0,1,241.96,212.578Z" transform="translate(-173.195 -103.986)" fill="#263238"/>
  </g>
  <g id="freepik--Megaphone--inject-3" transform="translate(25.686 37.717)">
    <path id="Trazado_271" data-name="Trazado 271" d="M225.876,343.647l1.346-4.522c.236-.981.548-2.137.966-3.457a9.373,9.373,0,0,1,2.229-3.332c1.373-1.4,2.027-1.4,2.947-2.145.084-.053.179-.133.259-.175a1.449,1.449,0,0,0,.449-.38c.795-.859.03-2.194-1.586-2.065-1.213.1-3.2.441-6.424,3.769-.042.053-.084.1-.122.145-1.692,2.2-3.282-4.081-3.571-6.42a2.445,2.445,0,0,0-3.313-1.9l-7.857,3.674a3.677,3.677,0,0,0-2.282.076,2.343,2.343,0,0,0-1.5,2.772l3.191,12.706-9.36,31.148h20.176Z" transform="translate(-160.856 -246.956)" fill="#ffbe9d"/>
    <path id="Trazado_272" data-name="Trazado 272" d="M249.114,294.941l-6.237,12.223-3.119-.867L224.089,319.05a3.172,3.172,0,0,1-4.408-.38l-5.971-6.933s12.037-5.184,14.262-9.474-.346-5.267-.346-5.267l5.663-6.435Z" transform="translate(-168.577 -226.858)" fill="#c00"/>
    <path id="Trazado_273" data-name="Trazado 273" d="M167.486,166.182s-9.128-2.019-21.979-14.372-18.883-28.771-20.438-28.68-8.439-3.107-21.5,25.3-7.914,34.989-5.324,34.951,20.241-4.971,31.262-3.72,25.188,7,25.188,7Z" transform="translate(-95.038 -123.063)" fill="#c00"/>
    <path id="Trazado_274" data-name="Trazado 274" d="M280.873,243.216l-3.115,5.922-1.4,2.662a7.728,7.728,0,0,1-10.075,3.423L246.72,248.4l11.41-26.014,19.548,10.417A7.728,7.728,0,0,1,280.873,243.216Z" transform="translate(-189.033 -184.614)" fill="#c00"/>
    <g id="Grupo_80" data-name="Grupo 80" transform="translate(57.687 37.776)" opacity="0.4">
      <path id="Trazado_275" data-name="Trazado 275" d="M280.873,243.216l-3.115,5.922-1.4,2.662a7.728,7.728,0,0,1-10.075,3.423L246.72,248.4l11.41-26.014,19.548,10.417A7.728,7.728,0,0,1,280.873,243.216Z" transform="translate(-246.72 -222.39)"/>
    </g>
    <path id="Trazado_276" data-name="Trazado 276" d="M107.377,149.994c-6.948,15.388-9.843,29.1-6.465,30.627s11.756-9.71,18.7-25.1,9.843-29.1,6.465-30.627S114.325,134.607,107.377,149.994Z" transform="translate(-97.804 -124.111)" fill="#c00"/>
    <g id="Grupo_81" data-name="Grupo 81" transform="translate(1.697 0.643)" opacity="0.5">
      <path id="Trazado_277" data-name="Trazado 277" d="M107.377,149.994c-6.948,15.388-9.843,29.1-6.465,30.627s11.756-9.71,18.7-25.1,9.843-29.1,6.465-30.627S114.325,134.607,107.377,149.994Z" transform="translate(-99.501 -124.754)"/>
    </g>
    <path id="Trazado_278" data-name="Trazado 278" d="M332.3,286.773l-5.305-1.666,3.282-6.237,3.978,2.472Z" transform="translate(-238.775 -219.614)" fill="#c00"/>
    <g id="Grupo_82" data-name="Grupo 82" transform="translate(88.215 59.256)" opacity="0.6">
      <path id="Trazado_279" data-name="Trazado 279" d="M330.272,278.87l-3.282,6.237,1.091.342,2.666-6.287Z" transform="translate(-326.99 -278.87)"/>
    </g>
    <path id="Trazado_280" data-name="Trazado 280" d="M307.19,274.142c-.076.171-2.723-.856-5.91-2.282s-5.7-2.75-5.632-2.921,2.723.86,5.914,2.3S307.27,273.971,307.19,274.142Z" transform="translate(-219.351 -213.449)" fill="#c00"/>
    <path id="Trazado_281" data-name="Trazado 281" d="M313.354,264.5c-.084.167-2.48-.841-5.351-2.255s-5.131-2.7-5.047-2.868,2.476.84,5.347,2.255S313.438,264.331,313.354,264.5Z" transform="translate(-223.88 -207.524)" fill="#c00"/>
    <path id="Trazado_282" data-name="Trazado 282" d="M303.451,285.227c-.027.091-.658-.053-1.662-.38-.5-.156-1.1-.354-1.757-.578s-1.331-.582-2.058-.913c-2.9-1.346-5.119-2.662-5.047-2.822s2.457.871,5.324,2.206c.723.327,1.392.685,2.023.947s1.2.494,1.673.707C302.9,284.831,303.477,285.135,303.451,285.227Z" transform="translate(-217.665 -220.634)" fill="#c00"/>
    <path id="Trazado_283" data-name="Trazado 283" d="M135.425,180.293s-7.933-4.921-12.273,5.8,4,12.482,4,12.482A71.358,71.358,0,0,0,135.425,180.293Z" transform="translate(-111.685 -157.829)" fill="#c00"/>
    <g id="Grupo_83" data-name="Grupo 83" transform="translate(9.429 9.686)" opacity="0.5">
      <path id="Trazado_284" data-name="Trazado 284" d="M142.581,148.53a11.6,11.6,0,0,1-.308,2.05c-.243,1.312-.609,3.21-1.118,5.545l-1.1,3.754q-.3,1.008-.62,2.088l-.323,1.092c-.118.38-.274.726-.411,1.1l-1.791,4.625c-.156.4-.316.806-.472,1.213s-.38.795-.559,1.2l-1.179,2.434-1.183,2.43c-.2.38-.38.806-.6,1.179s-.445.761-.662,1.122l-2.529,4.271c-.205.335-.38.681-.608,1l-.658.932-1.263,1.78-2.282,3.183c-1.521,1.837-2.792,3.286-3.666,4.294a12.462,12.462,0,0,1-1.419,1.521,12.289,12.289,0,0,1,1.217-1.681c.844-1.076,2.035-2.582,3.5-4.434l2.187-3.206,1.225-1.784c.213-.3.426-.616.643-.932s.38-.662.589-1l2.5-4.267.65-1.118c.224-.38.38-.761.59-1.171l1.171-2.415c.38-.818.787-1.62,1.175-2.415.183-.38.4-.783.555-1.187l.475-1.2,1.818-4.564c.141-.38.3-.719.422-1.084s.224-.723.335-1.08l.647-2.065,1.168-3.708,1.32-5.477a12.276,12.276,0,0,1,.57-2.016Z" transform="translate(-119.83 -148.53)"/>
    </g>
    <g id="Grupo_84" data-name="Grupo 84" transform="translate(47.027 73.139)" opacity="0.4">
      <path id="Trazado_285" data-name="Trazado 285" d="M218.69,326.26a15.339,15.339,0,0,0,2.533,3.7,5.224,5.224,0,0,0,4.05,1.624,3.172,3.172,0,0,0,2.925-2.89,1.87,1.87,0,0,0,2.407-.426,4.2,4.2,0,0,0,.856-2.5,2.358,2.358,0,0,0,2.978-.8,3.857,3.857,0,0,0,.38-3.255,11.475,11.475,0,0,0-1.563-2.993,4.134,4.134,0,0,0,2.213-.224,1.414,1.414,0,0,0,.734-1.867,1.837,1.837,0,0,0-1.092-.7,6.894,6.894,0,0,0-3.221-.521c-.282,0,.491,3.225-7.18,7.629C220.158,325.644,218.69,326.26,218.69,326.26Z" transform="translate(-218.69 -315.373)"/>
    </g>
    <path id="Trazado_286" data-name="Trazado 286" d="M251.419,355.9c0,.034-.513-.065-1.343-.042a7.606,7.606,0,0,0-5.636,2.7c-.536.631-.761,1.092-.81,1.072a1.17,1.17,0,0,1,.148-.335,6.652,6.652,0,0,1,.551-.829,7.226,7.226,0,0,1,5.747-2.753,5.8,5.8,0,0,1,.989.091,1.039,1.039,0,0,1,.354.091Z" transform="translate(-187.118 -267.236)" fill="#eb996e"/>
    <path id="Trazado_287" data-name="Trazado 287" d="M220,327.585c1.236,1.187,2.08,2.5,3.377,3.693.59.544,1.521,1.571,2.282,1.708s1.293.034,1.6-.7c.255-.6-.2-1.415-.513-1.9-.825-1.3-1.616-2.309-2.232-3.316-.293-.472.084-.57.221-.35.593.616,1.483,1.141,2.016,1.822.73.917.859,2.137,2.769,1.749a1.665,1.665,0,0,0,.707-.293,1.911,1.911,0,0,0,.449-2.282,6.207,6.207,0,0,0-1.065-1.6c.814.917,1.7,1.9,2.993,1.985a1.776,1.776,0,0,0,1.806-.977,2.358,2.358,0,0,0-.715-2.385,24.978,24.978,0,0,0-3.244-3.316,2.484,2.484,0,0,0-1.575-.582,2.25,2.25,0,0,0-1.9.7,2.605,2.605,0,0,0-.521,1.989,3.3,3.3,0,0,0-3.02.038,4.283,4.283,0,0,0-1.681,2.419Z" transform="translate(-172.475 -245.616)" fill="#ffbe9d"/>
    <path id="Trazado_288" data-name="Trazado 288" d="M242.657,313.946a2.008,2.008,0,0,1-.236-2.282c.285-.559.643-1.1,1.008-1.225,1.594-.536,8.561.669,8.5,2.213s-.574,2.282-4.351,1.738c-.666-.1-1.708-.224-1.708-.224l-.913,1.369Z" transform="translate(-186.214 -239.096)" fill="#ffbe9d"/>
    <path id="Trazado_289" data-name="Trazado 289" d="M240.477,331.22a9.086,9.086,0,0,0-3.837-3.48,2.215,2.215,0,0,1,.738.259,6.621,6.621,0,0,1,2.769,2.51A2.126,2.126,0,0,1,240.477,331.22Z" transform="translate(-182.786 -249.898)" fill="#eb996e"/>
    <path id="Trazado_290" data-name="Trazado 290" d="M246.073,322.184c-.034.03-.494-.342-1.122-.726a8.139,8.139,0,0,0-.814-.453c-.217-.1-.361-.125-.357-.156s.164-.046.4.027a3.693,3.693,0,0,1,.875.415A2.643,2.643,0,0,1,246.073,322.184Z" transform="translate(-187.211 -245.612)" fill="#eb996e"/>
    <path id="Trazado_291" data-name="Trazado 291" d="M248.889,319.1a2.977,2.977,0,0,1-1.343-.152,2.479,2.479,0,0,1-.86-.464c-.19-.164-.27-.3-.251-.316a5.7,5.7,0,0,0,1.168.578A10.006,10.006,0,0,1,248.889,319.1Z" transform="translate(-188.855 -243.967)" fill="#eb996e"/>
    <path id="Trazado_292" data-name="Trazado 292" d="M226.074,336.275a4.944,4.944,0,0,1-.635-.825,7.388,7.388,0,0,0-1.624-1.848,3.267,3.267,0,0,0-2.3-.609,3.909,3.909,0,0,0-.97.308,1,1,0,0,1,.224-.175,2.123,2.123,0,0,1,.723-.274,3.248,3.248,0,0,1,2.442.589,6.589,6.589,0,0,1,1.628,1.928A6.2,6.2,0,0,1,226.074,336.275Z" transform="translate(-172.809 -253.04)" fill="#eb996e"/>
    <path id="Trazado_293" data-name="Trazado 293" d="M239.786,382.42a21.3,21.3,0,0,1-2.845.407,20.61,20.61,0,0,1-2.871.213,42.442,42.442,0,0,1,5.716-.62Z" transform="translate(-181.194 -283.782)" fill="#eb996e"/>
  </g>
  <g id="freepik--Stars--inject-3" transform="translate(8.067 9.869)">
    <path id="Trazado_294" data-name="Trazado 294" d="M404.653,49.84l.43.787.783.43-.783.43-.43.783-.43-.783-.783-.43.783-.43Z" transform="translate(-268.53 -49.84)" fill="#c00"/>
    <path id="Trazado_295" data-name="Trazado 295" d="M428.257,101.01l.43.787.783.43-.783.43-.43.783-.43-.783-.787-.43.787-.43Z" transform="translate(-283.154 -81.549)" fill="#c00"/>
    <path id="Trazado_296" data-name="Trazado 296" d="M49.923,237.53l.43.787.787.43-.787.426-.43.787-.43-.787-.783-.426.783-.43Z" transform="translate(-48.71 -166.148)" fill="#c00"/>
    <path id="Trazado_297" data-name="Trazado 297" d="M371.093,62.56l.993,1.814,1.814.993-1.814.989-.993,1.814-.989-1.814-1.814-.989,1.814-.993Z" transform="translate(-246.748 -57.722)" fill="#c00"/>
    <path id="Trazado_298" data-name="Trazado 298" d="M68.5,205.1l.989,1.807,1.81.989-1.81.993-.989,1.806-.989-1.806L65.7,207.9l1.81-.989Z" transform="translate(-59.238 -146.052)" fill="#c00"/>
    <path id="Trazado_299" data-name="Trazado 299" d="M432.1,318.56l.989,1.81,1.807.989-1.807.989-.989,1.81-.989-1.81-1.81-.989,1.81-.989Z" transform="translate(-284.555 -216.361)" fill="#c00"/>
  </g>
</svg>
