<svg xmlns="http://www.w3.org/2000/svg" width="990.289" height="348.647" viewBox="0 0 990.289 348.647"><g transform="translate(-449 -348.739)"><g transform="translate(-1010.955 -317.534)"><g transform="translate(1459.955 666.273)"><path d="M1460.215,832.963V812.61h32.921v22.942q0,19.057,3.242,26.767t12.183,7.712q8.944,0,11.86-6.35t2.917-20.738q0-14.388-5.185-25.082T1501.692,795.5l-16.851-17.37A103.512,103.512,0,0,1,1466.5,752.6q-6.548-13.217-6.546-30.589,0-28.254,10.888-41.994t37.459-13.741q26.569,0,35.969,16.011t9.4,46.723v14.13h-32.014V726.805q0-16.59-2.853-23.784t-10.954-7.195q-8.1,0-11.665,5.444t-3.563,16.332q0,10.888,3.627,17.368t13.094,16.591l18.8,20.35q14.124,15.295,21.321,30.979a81.1,81.1,0,0,1,7.195,34.219q0,32.016-10.76,47.31t-37.652,15.3q-26.9,0-37.459-17.047T1460.215,832.963Z" transform="translate(-1459.955 -666.273)" fill="#211915"/><path d="M1542.306,895.68V667.552h34.736v92.289h31.108V667.552h34.74V895.68h-34.74V789.652h-31.108V895.68Z" transform="translate(-1356.673 -664.831)" fill="#211915"/><path d="M1631.236,895.68V667.552h34.738V895.68Z" transform="translate(-1246.719 -664.831)" fill="#211915"/><path d="M1689.216,895.68V667.552h43.162l32.4,166.69,30.46-166.69h43.421V895.68h-30.976V810.651l1.3-78.03-30.719,162.02h-27.609l-32.015-162.02,1.3,78.03V895.68Z" transform="translate(-1170.627 -664.831)" fill="#211915"/><path d="M1795.694,895.68l32.534-228.128h45.885l34.608,228.128h-32.406l-5.442-40.7h-36.812l-4.925,40.7Zm71.55-68.569-15.3-114.58h-.519l-14,114.58Z" transform="translate(-1031.406 -664.831)" fill="#211915"/><path d="M1885.6,895.68V667.552h34.738V895.68Z" transform="translate(-930.049 -664.831)" fill="#211915"/></g></g><g transform="translate(479.889 616.876)"><path d="M1474.475,823.927h30.247v9.333h-30.247Z" transform="translate(-1474.475 -779.848)" fill="#c00"/><path d="M1589.743,872.558v9.784h-57.124V803.631h55.55v9.78h-44.3v24.175h39.469v9.56h-39.469v25.411Z" transform="translate(-1408.925 -802.729)" fill="#c00"/><path d="M1575.224,873.823l4.161-8.771c5.846,5.284,15.853,9.107,25.975,9.107,13.6,0,19.45-5.282,19.45-12.143,0-19.229-47.676-7.084-47.676-36.318,0-12.145,9.448-22.491,30.136-22.491,9.22,0,18.778,2.474,25.3,6.971l-3.71,9a40.642,40.642,0,0,0-21.591-6.41c-13.381,0-19.116,5.62-19.116,12.481,0,19.227,47.678,7.2,47.678,36.1,0,12.03-9.671,22.376-30.472,22.376C1593.328,883.717,1581.521,879.671,1575.224,873.823Z" transform="translate(-1347.778 -803.207)" fill="#c00"/><path d="M1643.124,813.411h-26.986v-9.78h65.1v9.78h-26.985v68.931h-11.133Z" transform="translate(-1296.225 -802.729)" fill="#c00"/><path d="M1662.071,848.382V803.631h11.247v44.3c0,17.427,7.982,25.3,22.152,25.3s22.261-7.871,22.261-25.3v-44.3h10.907v44.751c0,22.827-12.481,34.857-33.283,34.857C1674.665,883.239,1662.071,871.209,1662.071,848.382Z" transform="translate(-1238.384 -802.729)" fill="#c00"/><path d="M1714.772,803.631h33.17c25.3,0,42.5,15.964,42.5,39.354s-17.2,39.356-42.5,39.356h-33.17Zm32.5,68.927c19.455,0,31.936-11.92,31.936-29.573s-12.481-29.575-31.936-29.575h-21.25v59.147Z" transform="translate(-1171.702 -802.729)" fill="#c00"/><path d="M1769.005,803.631h11.245v78.711h-11.245Z" transform="translate(-1106.271 -802.729)" fill="#c00"/><path d="M1792.95,843.463c0-23.05,17.768-40.256,41.943-40.256,23.95,0,41.718,17.094,41.718,40.256s-17.768,40.254-41.718,40.254C1810.718,883.717,1792.95,866.513,1792.95,843.463Zm72.414,0c0-17.43-13.041-30.247-30.47-30.247-17.655,0-30.7,12.817-30.7,30.247s13.045,30.247,30.7,30.247C1852.323,873.71,1865.364,860.893,1865.364,843.463Z" transform="translate(-1065.389 -803.207)" fill="#c00"/><path d="M1873.191,823.927h30.247v9.333h-30.247Z" transform="translate(-974.927 -779.848)" fill="#c00"/></g></g></svg>