<svg id="Videographer-amico" xmlns="http://www.w3.org/2000/svg" width="196.105" height="169.683" viewBox="0 0 196.105 169.683">
  <g id="freepik--Floor--inject-36" transform="translate(0.558 55.547)">
    <ellipse id="freepik--floor--inject-36-2" data-name="freepik--floor--inject-36" cx="97.774" cy="57.068" rx="97.774" ry="57.068" fill="#f0f0f0"/>
  </g>
  <g id="freepik--Shadows--inject-36" transform="translate(24.481 110.626)">
    <ellipse id="freepik--Shadow--inject-36" cx="33.779" cy="19.504" rx="33.779" ry="19.504" transform="translate(0 1.007)" fill="#e0e0e0"/>
    <ellipse id="freepik--shadow--inject-36-2" data-name="freepik--shadow--inject-36" cx="33.779" cy="19.504" rx="33.779" ry="19.504" transform="translate(81.836)" fill="#e0e0e0"/>
  </g>
  <g id="freepik--Plants--inject-36" transform="translate(0 37.595)">
    <g id="freepik--plants--inject-36-2" data-name="freepik--plants--inject-36">
      <path id="Trazado_600" data-name="Trazado 600" d="M55.793,277.012l4.111-2.349s1.972-10.867.5-20.211c-2.075-13.134-11.017-17.661-14.266-16.358s-4.008,5.2,1.856,12.787C51.455,255.356,55.909,264.825,55.793,277.012Z" transform="translate(-36.04 -237.879)" fill="#edeff7"/>
      <g id="Grupo_85" data-name="Grupo 85" transform="translate(7.593)" opacity="0.15">
        <path id="Trazado_601" data-name="Trazado 601" d="M55.793,277.012l4.111-2.349s1.972-10.867.5-20.211c-2.075-13.134-11.017-17.661-14.266-16.358s-4.008,5.2,1.856,12.787C51.455,255.356,55.909,264.825,55.793,277.012Z" transform="translate(-43.633 -237.879)" fill="#edeff7"/>
      </g>
      <path id="Trazado_602" data-name="Trazado 602" d="M63.248,274.283h-.043a.3.3,0,0,1-.249-.33c1.715-12.3-3.245-25.771-8.8-31.2a.3.3,0,0,1,.429-.429c5.658,5.525,10.717,19.217,8.972,31.7A.3.3,0,0,1,63.248,274.283Z" transform="translate(-41.999 -240.367)" fill="#edeff7"/>
      <path id="Trazado_603" data-name="Trazado 603" d="M34.27,298.656c-.652.373-1.989-.429-2.5-.789a6.173,6.173,0,0,1-2.062-2.366,5.791,5.791,0,0,1-.514-3.489,13.258,13.258,0,0,1,.429-1.856c.176-.6.347-1.2.519-1.8a4.561,4.561,0,0,0,.266-1.818c-.159-1.23-1.252-2.1-2.246-2.838-1.1-.823-2.242-1.912-2.238-3.4a5.271,5.271,0,0,1,1.286-3.1c.69-.9,1.552-1.693,2.19-2.641a3.614,3.614,0,0,0,.776-2.289,3.8,3.8,0,0,0-.5-1.44,20.546,20.546,0,0,1-1.573-2.889,2.9,2.9,0,0,1,.5-3.069,3.426,3.426,0,0,1,2.572-.634,5.821,5.821,0,0,1,2.375.836c2.353,1.307,3.7,4.1,6.2,5.105a26.16,26.16,0,0,0,3,.737,3.784,3.784,0,0,1,2.495,1.715c.917,1.835-.784,4.089-.141,6.036.57,1.715,2.242,2.379,3.181,3.931a3.682,3.682,0,0,1,.429,2.25,10.769,10.769,0,0,1-.952,3.807,26.684,26.684,0,0,1-2.088,3.429C45.638,292.1,34.369,298.6,34.27,298.656Z" transform="translate(-25.92 -252.93)" fill="#edeff7"/>
      <path id="Trazado_604" data-name="Trazado 604" d="M48.494,297.534h0a.3.3,0,0,1-.287-.3c.484-11.638-5-24.49-9-28.223a.291.291,0,0,1,0-.429.3.3,0,0,1,.429,0c4.068,3.811,9.666,16.872,9.173,28.673a.3.3,0,0,1-.313.283Z" transform="translate(-33.456 -255.366)" fill="#edeff7"/>
      <path id="Trazado_605" data-name="Trazado 605" d="M45.158,301.575a.275.275,0,0,1-.086,0,38.122,38.122,0,0,0-8.445-1.359.291.291,0,0,1-.279-.309.283.283,0,0,1,.3-.279,39.659,39.659,0,0,1,8.595,1.389.292.292,0,0,1-.086.57Z" transform="translate(-31.878 -273.159)" fill="#edeff7"/>
    </g>
    <g id="freepik--plants--inject-36-3" data-name="freepik--plants--inject-36" transform="translate(170.93 3.466)">
      <path id="Trazado_606" data-name="Trazado 606" d="M430.745,284.786l-5.933-3.138a132.421,132.421,0,0,1,.257-16.268c.99-10.1,8.5-21.836,16.289-18.981s-3.566,13.147-6.1,21.716S430.745,284.786,430.745,284.786Z" transform="translate(-424.671 -245.964)" fill="#edeff7"/>
      <path id="Trazado_607" data-name="Trazado 607" d="M430.745,284.786l-5.933-3.138a132.421,132.421,0,0,1,.257-16.268c.99-10.1,8.5-21.836,16.289-18.981s-3.566,13.147-6.1,21.716S430.745,284.786,430.745,284.786Z" transform="translate(-424.671 -245.964)" fill="#edeff7" opacity="0.3"/>
      <path id="Trazado_608" data-name="Trazado 608" d="M431.655,287.942h0a.266.266,0,0,0,.253-.274c-.763-22.453,10.417-33.749,10.528-33.864a.266.266,0,1,0-.369-.377c-.116.116-11.454,11.574-10.687,34.25A.27.27,0,0,0,431.655,287.942Z" transform="translate(-428.483 -250.17)" fill="#edeff7"/>
      <path id="Trazado_609" data-name="Trazado 609" d="M441.63,303.677l-3.082-1.779a34.508,34.508,0,0,1,1.912-14.982c2.859-7.759,10.249-12,13.649-10.832,4.149,1.41,4.175,5.384,2.666,8C455,287.16,443.872,294.954,441.63,303.677Z" transform="translate(-432.513 -263.063)" fill="#edeff7"/>
      <path id="Trazado_610" data-name="Trazado 610" d="M441.63,303.677l-3.082-1.779a34.508,34.508,0,0,1,1.912-14.982c2.859-7.759,10.249-12,13.649-10.832,4.149,1.41,4.175,5.384,2.666,8C455,287.16,443.872,294.954,441.63,303.677Z" transform="translate(-432.513 -263.063)" fill="#edeff7" opacity="0.1"/>
      <path id="Trazado_611" data-name="Trazado 611" d="M441.8,306.3h0a.262.262,0,0,0,.262-.262c-.06-14.2,13.267-23.791,13.4-23.889a.263.263,0,1,0-.3-.429c-.137.094-13.687,9.859-13.627,24.314A.266.266,0,0,0,441.8,306.3Z" transform="translate(-434.303 -266.368)" fill="#edeff7"/>
    </g>
  </g>
  <g id="freepik--speech-bubble--inject-36" transform="translate(34.662 45.646)">
    <g id="freepik--speech-bubble--inject-36-2" data-name="freepik--speech-bubble--inject-36">
      <g id="freepik--speech-bubble--inject-36-3" data-name="freepik--speech-bubble--inject-36">
        <g id="freepik--speach-bubble--inject-36" transform="translate(10.447)">
          <path id="Trazado_650" data-name="Trazado 650" d="M258.2,33.734,214.435,59A3.282,3.282,0,0,0,213,61.564v42.5a3.213,3.213,0,0,0,1.494,2.545l3.479,1.965a3.322,3.322,0,0,0,2.948,0L264.69,83.311a3.282,3.282,0,0,0,1.484-2.565V38.254A3.223,3.223,0,0,0,264.68,35.7L261.2,33.734A3.322,3.322,0,0,0,258.2,33.734Z" transform="translate(-212.951 -33.376)" fill="#c00"/>
          <path id="Trazado_651" data-name="Trazado 651" d="M219.52,107.759V65.3a3.282,3.282,0,0,1,1.454-2.565L264.8,37.466c.816-.482,1.484-.1,1.484.855V80.813a3.282,3.282,0,0,1-1.484,2.565l-43.828,25.265C220.188,109.115,219.52,108.741,219.52,107.759Z" transform="translate(-213.064 -33.444)" fill="#c00"/>
          <path id="Trazado_652" data-name="Trazado 652" d="M220.861,109.046a3.371,3.371,0,0,1-2.948,0l-3.469-1.965a3.214,3.214,0,0,1-1.494-2.545v-42.5a3.1,3.1,0,0,1,.472-1.513l6.456,3.715a2.947,2.947,0,0,0-.442,1.464v42.462C219.406,109.055,220.016,109.557,220.861,109.046Z" transform="translate(-212.95 -33.846)" opacity="0.2"/>
          <path id="Trazado_653" data-name="Trazado 653" d="M266.162,37.979c-.118-.747-.727-.983-1.464-.59L220.869,62.665a2.948,2.948,0,0,0-.983,1.1l-6.437-3.715A3,3,0,0,1,214.433,59l43.779-25.265a3.321,3.321,0,0,1,2.948,0l3.479,1.965a3.272,3.272,0,0,1,1.523,2.28Z" transform="translate(-212.959 -33.377)" fill="#fff" opacity="0.5"/>
        </g>
        <path id="Trazado_654" data-name="Trazado 654" d="M212.815,76.88,202.7,87.523a1.307,1.307,0,0,0,.216,2.024c.246.167,6.427,3.754,6.427,3.754l9.876-12.637Z" transform="translate(-202.32 -34.129)" fill="#c00"/>
        <path id="Trazado_655" data-name="Trazado 655" d="M212.815,76.88,202.7,87.523a1.307,1.307,0,0,0,.216,2.024c.246.167,6.427,3.754,6.427,3.754l9.876-12.637Z" transform="translate(-202.32 -34.129)" opacity="0.1"/>
        <path id="Trazado_656" data-name="Trazado 656" d="M219.336,80.73,209.273,91.373a1.307,1.307,0,0,0,1.12,2.211l8.943-.079C220.5,93.505,220.5,80.73,219.336,80.73Z" transform="translate(-202.433 -34.196)" fill="#c00"/>
      </g>
      <path id="freepik--Clapperboard--inject-36" d="M254.97,59.6,234.746,71.277l20.047-17.492a2.948,2.948,0,0,0,.884-2.349l-.393-2.869c-.108-.776-.668-.983-1.258-.482l-23.1,20.165A2.949,2.949,0,0,0,230,70.6l.393,2.869a1.062,1.062,0,0,0,.265.609,2.949,2.949,0,0,0-.344,1.307V93.7c0,.875.531,1.268,1.179.894l23.437-13.532a2.83,2.83,0,0,0,1.179-2.25V60.5C256.149,59.632,255.619,59.229,254.97,59.6Zm-7.862-.9,1.562-4.2a3.822,3.822,0,0,1,.855-1.3l3.076-2.673c.295-.255.393-.088.216.364L251.285,55.1a3.93,3.93,0,0,1-.855,1.3l-3.056,2.663c-.295.265-.393.1-.226-.364Zm-7.38,6.447,1.543-4.2a3.931,3.931,0,0,1,.855-1.307l3.056-2.663c.295-.256.393-.1.216.364l-1.543,4.2a3.8,3.8,0,0,1-.845,1.307l-3.056,2.663c-.265.255-.364.1-.187-.364Zm-7.341,6.437,1.543-4.2a3.763,3.763,0,0,1,.845-1.3l3.086-2.663c.3-.265.4-.1.226.364l-1.543,4.2a3.821,3.821,0,0,1-.855,1.3l-3.056,2.673C232.309,72.21,232.211,72.053,232.388,71.581Zm5.9.285-1.661,3.2a2.948,2.948,0,0,1-.983,1.13l-3.115,1.808c-.3.177-.383,0-.167-.5l1.671-3.2a3.026,3.026,0,0,1,.983-1.14l3.115-1.8c.275-.167.344.059.128.511Zm7.547-4.353-1.671,3.2a2.948,2.948,0,0,1-.934,1.13L240.1,73.655c-.3.167-.373-.049-.157-.511l1.67-3.194a2.948,2.948,0,0,1,.983-1.14l3.125-1.8c.226-.167.295.059.079.511Zm7.537-4.353-1.661,3.194a2.947,2.947,0,0,1-.983,1.14l-3.115,1.8c-.3.177-.373-.049-.167-.5l1.671-3.2a2.949,2.949,0,0,1,.983-1.13l3.115-1.808c.275-.157.373.088.128.521Z" transform="translate(-202.798 -33.626)" fill="#455a64"/>
    </g>
  </g>
  <g id="freepik--video-camera--inject-36" transform="translate(104.948 0)">
    <g id="freepik--video-camera--inject-36-2" data-name="freepik--video-camera--inject-36">
      <path id="Trazado_657" data-name="Trazado 657" d="M327.49,280.079c-.141-.03-.236-.313-.214-.634l6.2-99.844,3.091.326-8.762,99.63C327.777,279.877,327.636,280.113,327.49,280.079Z" transform="translate(-300.495 -136.917)" fill="#37474f"/>
      <path id="Trazado_658" data-name="Trazado 658" d="M369.031,264.466c.06.317,0,.574-.137.574s-.313-.253-.39-.566L349.24,183.046l3.558-.716Z" transform="translate(-313.046 -138.477)" fill="#37474f"/>
      <path id="Trazado_659" data-name="Trazado 659" d="M302.824,254.723l12.393-78.643,3.262,2.233-15.106,76.435c-.086.313-.27.562-.429.557S302.755,255.04,302.824,254.723Z" transform="translate(-286.507 -134.906)" fill="#37474f"/>
      <path id="Trazado_660" data-name="Trazado 660" d="M270.01,122.845a2.112,2.112,0,0,0-2.143.206,6.726,6.726,0,0,0-3.056,5.268,2.159,2.159,0,0,0,.857,1.95c.18.107,2.328,1.209,2.495,1.307a2.112,2.112,0,0,0,2.143-.206,6.734,6.734,0,0,0,3.056-5.268,2.162,2.162,0,0,0-.857-1.955C272.32,124.041,270.177,122.943,270.01,122.845Z" transform="translate(-264.808 -104.373)" fill="#455a64"/>
      <path id="Trazado_661" data-name="Trazado 661" d="M265.609,139.244a.486.486,0,0,0,.051.077l-.06-.081h0Z" transform="translate(-265.259 -113.858)" fill="#455a64"/>
      <path id="Trazado_662" data-name="Trazado 662" d="M270.54,131.326c0,1.942,1.359,2.731,3.043,1.762a6.734,6.734,0,0,0,3.056-5.268c0-1.942-1.359-2.731-3.043-1.762A6.726,6.726,0,0,0,270.54,131.326Z" transform="translate(-268.082 -106.09)" fill="#263238"/>
      <path id="Trazado_663" data-name="Trazado 663" d="M268.078,135.631h-.051l-.052-.026-.043-.026-.09-.047-.206-.116c-.24-.133-1.47-.737-1.68-.857l-.171-.094-.129-.077a1.012,1.012,0,0,1-.193-.141.456.456,0,0,1-.081-.077,1.33,1.33,0,0,1-.129-.141.673.673,0,0,1-.047-.069.482.482,0,0,1-.051-.077h0a2.715,2.715,0,0,1-.347-1.436,5.573,5.573,0,0,1,.429-2.01c.034-.086.069-.171.107-.253s.051-.129.081-.189l.09-.184h0l2.452,1.32a5.95,5.95,0,0,0-.69,2.611,2.729,2.729,0,0,0,.339,1.423A1.573,1.573,0,0,0,268.078,135.631Z" transform="translate(-264.805 -108.47)" opacity="0.15"/>
      <path id="Trazado_664" data-name="Trazado 664" d="M288.877,136.947a4.57,4.57,0,0,1-2.075,3.575,1.877,1.877,0,0,1-.926.283,1.089,1.089,0,0,1-.532-.137h0l-10.674-6.036h-.03a1.068,1.068,0,0,1-.159-.124,1.6,1.6,0,0,1-.429-1.209,4.578,4.578,0,0,1,2.075-3.579,1.6,1.6,0,0,1,1.26-.227,1.191,1.191,0,0,1,.171.069h0l.056.034,10.652,6.027h0A1.453,1.453,0,0,1,288.877,136.947Z" transform="translate(-270.087 -108.264)" fill="#37474f"/>
      <path id="Trazado_665" data-name="Trazado 665" d="M284.536,141.005a3.965,3.965,0,0,0-.3,1.445,1.937,1.937,0,0,0,.249,1.033l-1.38-.8h-.03l-7.566-4.244-.034-.021h0l-.733-.429h0a1.462,1.462,0,0,1-.592-1.333,3.728,3.728,0,0,1,.283-1.359Z" transform="translate(-270.139 -111.607)" opacity="0.15"/>
      <path id="Trazado_666" data-name="Trazado 666" d="M328.433,98.094h0a.489.489,0,0,0-.287-.4L303.284,83.327a1.552,1.552,0,0,0-1.4,0L286.2,92.38a.493.493,0,0,0-.292.4h0v6.07a.5.5,0,0,0,.292.429l24.862,14.36a1.552,1.552,0,0,0,1.4,0l15.68-9.053a.489.489,0,0,0,.287-.4h0v-2.8l.111-.06a.856.856,0,0,1-.111-.429ZM326.217,99.612ZM288.113,94.3Z" transform="translate(-276.863 -81.817)" fill="#37474f"/>
      <path id="Trazado_667" data-name="Trazado 667" d="M286.214,93.219l24.862,14.364a1.552,1.552,0,0,0,1.4,0l15.7-9.032a.429.429,0,0,0,0-.81L303.313,83.377a1.552,1.552,0,0,0-1.4,0L286.231,92.43a.429.429,0,0,0-.017.789Z" transform="translate(-276.893 -81.846)" fill="#455a64"/>
      <path id="Trazado_668" data-name="Trazado 668" d="M311.07,120.383l-24.862-14.36a.489.489,0,0,1-.287-.4v6.066a.5.5,0,0,0,.287.429l24.862,14.36a1.38,1.38,0,0,0,.7.167v-6.087a1.385,1.385,0,0,1-.7-.171Z" transform="translate(-276.869 -94.65)" fill="#263238"/>
      <path id="Trazado_669" data-name="Trazado 669" d="M368.139,129.391v16.594a1.569,1.569,0,0,1-.7,1.213l-15.278,8.813a1.556,1.556,0,0,1-1.4,0l-.429-.249-.934-.54V155l-1.145-.643-.184.107h0l-.939-.54-.184-.107h0l-.047-.026a1.252,1.252,0,0,1-.39-.364,1.381,1.381,0,0,1-.231-.429l-.03-.094a1.093,1.093,0,0,1-.051-.326v-17.4l.111-.064,16.671-9.623a.807.807,0,0,0,.3.291l4.154,2.4a1.569,1.569,0,0,1,.707,1.213Z" transform="translate(-311.309 -106.002)" fill="#455a64"/>
      <path id="Trazado_670" data-name="Trazado 670" d="M352.083,164.569a1.406,1.406,0,0,1-.7.193,1.449,1.449,0,0,1-.7-.189l-.429-.249-.934-.54v-.219l-1.145-.647-.184.107h0l-.939-.54-.184-.107h0a1.476,1.476,0,0,1-.429-.39,1.38,1.38,0,0,1-.231-.429l-.03-.094a1.531,1.531,0,0,1-.051-.394l-.069-20.6.069,2.8a.779.779,0,0,0,.111.4.857.857,0,0,0,.292.3l5.058,2.919a1.471,1.471,0,0,0-.206.69v16.589Z" transform="translate(-311.229 -114.561)" fill="#263238"/>
      <path id="Trazado_671" data-name="Trazado 671" d="M293.313,149.164a1.543,1.543,0,0,1-.7-1.213v-6l24.3,14.026V162.8Z" transform="translate(-280.691 -115.406)" fill="#263238"/>
      <path id="Trazado_672" data-name="Trazado 672" d="M374.452,133.523l-15.269,8.818a1.543,1.543,0,0,0-.7,1.213v16.589c0,.429.313.626.7.4l15.269-8.818a1.535,1.535,0,0,0,.7-1.213V133.926C375.155,133.48,374.842,133.3,374.452,133.523Z" transform="translate(-318.325 -110.537)" fill="#37474f"/>
      <path id="Trazado_673" data-name="Trazado 673" d="M291.706,122.228a1.5,1.5,0,0,0-.656,1.187v9a1.552,1.552,0,0,0,.7,1.213l20.936,12.088a1.453,1.453,0,0,0,1.359,0,1.59,1.59,0,0,0,.656-1.222v-8.976a1.552,1.552,0,0,0-.7-1.213l-20.936-12.058a1.5,1.5,0,0,0-1.359-.021Z" transform="translate(-279.8 -104.052)" fill="#c00"/>
      <path id="Trazado_674" data-name="Trazado 674" d="M291.706,122.228a1.5,1.5,0,0,0-.656,1.187v9a1.552,1.552,0,0,0,.7,1.213l20.936,12.088a1.453,1.453,0,0,0,1.359,0,1.59,1.59,0,0,0,.656-1.222v-8.976a1.552,1.552,0,0,0-.7-1.213l-20.936-12.058a1.5,1.5,0,0,0-1.359-.021Z" transform="translate(-279.8 -104.052)" opacity="0.2"/>
      <path id="Trazado_675" data-name="Trazado 675" d="M291.749,124.123l20.94,12.088a1.552,1.552,0,0,1,.7,1.213v9c0,.429-.313.626-.7.4l-20.936-12.1a1.552,1.552,0,0,1-.7-1.213v-9C291.05,124.085,291.363,123.9,291.749,124.123Z" transform="translate(-279.8 -105.167)" fill="#c00"/>
      <path id="Trazado_676" data-name="Trazado 676" d="M291.749,124.123l20.94,12.088a1.552,1.552,0,0,1,.7,1.213v9c0,.429-.313.626-.7.4l-20.936-12.1a1.552,1.552,0,0,1-.7-1.213v-9C291.05,124.085,291.363,123.9,291.749,124.123Z" transform="translate(-279.8 -105.167)" opacity="0.4"/>
      <path id="Trazado_677" data-name="Trazado 677" d="M343.683,152.56v8.968a1.6,1.6,0,0,1-.656,1.222,1.441,1.441,0,0,1-1.248.06c.334.137.592-.051.592-.454v-9a1.393,1.393,0,0,0-.21-.69h0l1.329-.763A1.433,1.433,0,0,1,343.683,152.56Z" transform="translate(-308.784 -121.091)" opacity="0.15"/>
      <path id="Trazado_678" data-name="Trazado 678" d="M309.86,137.938l5.727,3.3a.917.917,0,0,1,.429.729v.54c0,.27-.189.377-.429.244l-5.718-3.3a.926.926,0,0,1-.429-.724v-.532A.266.266,0,0,1,309.86,137.938Z" transform="translate(-290.307 -113.087)" fill="#e6e6e6"/>
      <path id="Trazado_679" data-name="Trazado 679" d="M305.909,159.565a.768.768,0,0,0-.347-.6l-1.286-.733a.253.253,0,0,0-.249-.026l-.656.382a.249.249,0,0,0-.1.227v.707a.78.78,0,0,0,.352.609l1.286.729a.236.236,0,0,0,.244.026l.66-.377a.257.257,0,0,0,.1-.227Z" transform="translate(-286.78 -124.679)" fill="#c00"/>
      <path id="Trazado_680" data-name="Trazado 680" d="M303.661,159.117l1.286.729a.776.776,0,0,1,.347.609v.729c0,.223-.154.313-.347.2l-1.286-.729a.78.78,0,0,1-.351-.609v-.707C303.31,159.1,303.469,159.006,303.661,159.117Z" transform="translate(-286.804 -125.187)" fill="#c00"/>
      <path id="Trazado_681" data-name="Trazado 681" d="M308.424,160.953v.712a.253.253,0,0,1-.1.227l-.634.364a.27.27,0,0,0,.081-.214v-.707a.733.733,0,0,0-.1-.343l.656-.381A.759.759,0,0,1,308.424,160.953Z" transform="translate(-289.296 -126.067)" opacity="0.15"/>
      <path id="Trazado_682" data-name="Trazado 682" d="M305.972,159.21l-.656.382a.7.7,0,0,0-.249-.261l-1.286-.733a.262.262,0,0,0-.232-.034c.111-.064.579-.339.643-.369a.236.236,0,0,1,.244,0l1.286.733A.73.73,0,0,1,305.972,159.21Z" transform="translate(-286.942 -124.668)" opacity="0.25"/>
      <path id="Trazado_683" data-name="Trazado 683" d="M315.132,164.883a.78.78,0,0,0-.351-.609l-1.265-.729a.244.244,0,0,0-.249-.026l-.66.382a.249.249,0,0,0-.1.223v.712a.763.763,0,0,0,.351.6l1.265.733a.24.24,0,0,0,.249,0l.656-.377a.248.248,0,0,0,.1-.227Z" transform="translate(-292.059 -127.717)" fill="#c00"/>
      <path id="Trazado_684" data-name="Trazado 684" d="M312.862,164.427l1.264.733a.771.771,0,0,1,.352.6v.712c0,.223-.159.313-.352.2l-1.264-.746a.763.763,0,0,1-.352-.6v-.682C312.51,164.405,312.664,164.315,312.862,164.427Z" transform="translate(-292.061 -128.221)" fill="#c00"/>
      <path id="Trazado_685" data-name="Trazado 685" d="M317.619,166.273v.707a.244.244,0,0,1-.1.227l-.634.364a.262.262,0,0,0,.081-.214v-.707a.715.715,0,0,0-.1-.343l.66-.377A.746.746,0,0,1,317.619,166.273Z" transform="translate(-294.546 -129.107)" opacity="0.15"/>
      <path id="Trazado_686" data-name="Trazado 686" d="M315.166,164.527l-.66.377a.694.694,0,0,0-.249-.262l-1.286-.729a.253.253,0,0,0-.232-.039l.643-.369a.253.253,0,0,1,.249,0l1.265.733A.793.793,0,0,1,315.166,164.527Z" transform="translate(-292.192 -127.704)" opacity="0.25"/>
      <path id="Trazado_687" data-name="Trazado 687" d="M324.3,170.155a.772.772,0,0,0-.351-.6l-1.286-.733a.249.249,0,0,0-.244-.026l-.66.382a.249.249,0,0,0-.1.227v.707a.78.78,0,0,0,.351.609l1.286.729a.249.249,0,0,0,.244.026l.66-.382a.236.236,0,0,0,.1-.223Z" transform="translate(-297.287 -130.73)" fill="#c00"/>
      <path id="Trazado_688" data-name="Trazado 688" d="M322.051,169.746l1.286.729a.776.776,0,0,1,.347.609v.707c0,.223-.154.313-.347.2l-1.286-.729a.78.78,0,0,1-.351-.609v-.707C321.7,169.725,321.859,169.635,322.051,169.746Z" transform="translate(-297.311 -131.26)" fill="#c00"/>
      <path id="Trazado_689" data-name="Trazado 689" d="M326.819,171.543v.712a.24.24,0,0,1-.107.223l-.634.369a.253.253,0,0,0,.081-.214v-.707a.732.732,0,0,0-.1-.343l.656-.382a.769.769,0,0,1,.1.343Z" transform="translate(-299.802 -132.118)" opacity="0.15"/>
      <path id="Trazado_690" data-name="Trazado 690" d="M324.362,169.84l-.656.381a.669.669,0,0,0-.249-.261l-1.286-.733a.261.261,0,0,0-.231-.034c.111-.064.583-.339.643-.369a.236.236,0,0,1,.244,0l1.286.733A.729.729,0,0,1,324.362,169.84Z" transform="translate(-297.448 -130.741)" opacity="0.25"/>
      <path id="Trazado_691" data-name="Trazado 691" d="M351.582,166.563v11.33l-.934-.54v-.219l-1.145-.647-.184.107h0l-.939-.54v-11.33a.442.442,0,0,1,.7-.429l1.788,1.033A1.552,1.552,0,0,1,351.582,166.563Z" transform="translate(-312.555 -128.128)" fill="#455a64"/>
      <path id="Trazado_692" data-name="Trazado 692" d="M351.9,183.736v4l-1.145-.639-.184.107h0v-4.218c0-.146.077-.219.2-.193a.289.289,0,0,1,.077.03l.759.429A.622.622,0,0,1,351.9,183.736Z" transform="translate(-313.806 -138.739)" fill="#263238"/>
      <path id="Trazado_693" data-name="Trazado 693" d="M352.14,183.743v4L351,187.1v-4.218a.273.273,0,0,1,0-.086.289.289,0,0,1,.077.03l.759.429A.621.621,0,0,1,352.14,183.743Z" transform="translate(-314.047 -138.745)" fill="#37474f"/>
      <path id="Trazado_694" data-name="Trazado 694" d="M351.711,184.692l-.146.086h0a.184.184,0,0,0-.026.1.484.484,0,0,0,.223.386.2.2,0,0,0,.1.03h0l.141-.081h0a.154.154,0,0,0,.069-.146.5.5,0,0,0-.223-.386A.159.159,0,0,0,351.711,184.692Z" transform="translate(-314.36 -139.814)" fill="#c00"/>
      <path id="Trazado_695" data-name="Trazado 695" d="M351.711,184.692l-.146.086h0a.184.184,0,0,0-.026.1.484.484,0,0,0,.223.386.2.2,0,0,0,.1.03h0l.141-.081h0a.154.154,0,0,0,.069-.146.5.5,0,0,0-.223-.386A.159.159,0,0,0,351.711,184.692Z" transform="translate(-314.36 -139.814)" opacity="0.15"/>
      <path id="Trazado_696" data-name="Trazado 696" d="M351.9,185.3c0,.146-.1.2-.223.133a.493.493,0,0,1-.223-.39c0-.141.1-.2.223-.129A.493.493,0,0,1,351.9,185.3Z" transform="translate(-314.309 -139.935)" fill="#c00"/>
      <path id="Trazado_697" data-name="Trazado 697" d="M351.2,169.367l-.317.184v.026a.461.461,0,0,0-.056.232,1.08,1.08,0,0,0,.493.857.429.429,0,0,0,.227.064v.03l.322-.184h0a.352.352,0,0,0,.141-.317,1.08,1.08,0,0,0-.489-.857A.347.347,0,0,0,351.2,169.367Z" transform="translate(-313.954 -131.057)" fill="#c00"/>
      <path id="Trazado_698" data-name="Trazado 698" d="M351.2,169.367l-.317.184v.026a.461.461,0,0,0-.056.232,1.08,1.08,0,0,0,.493.857.429.429,0,0,0,.227.064v.03l.322-.184h0a.352.352,0,0,0,.141-.317,1.08,1.08,0,0,0-.489-.857A.347.347,0,0,0,351.2,169.367Z" transform="translate(-313.954 -131.057)" opacity="0.15"/>
      <path id="Trazado_699" data-name="Trazado 699" d="M351.6,170.664c0,.313-.219.429-.489.283a1.089,1.089,0,0,1-.493-.857c0-.313.223-.429.493-.283A1.08,1.08,0,0,1,351.6,170.664Z" transform="translate(-313.834 -131.286)" fill="#c00"/>
      <path id="Trazado_700" data-name="Trazado 700" d="M351.711,188.272l-.146.081h0a.21.21,0,0,0-.026.107.492.492,0,0,0,.223.386.2.2,0,0,0,.1.03h0l.142-.081h0a.163.163,0,0,0,.069-.146.5.5,0,0,0-.223-.386.159.159,0,0,0-.141.009Z" transform="translate(-314.36 -141.859)" fill="#c00"/>
      <path id="Trazado_701" data-name="Trazado 701" d="M351.711,188.272l-.146.081h0a.21.21,0,0,0-.026.107.492.492,0,0,0,.223.386.2.2,0,0,0,.1.03h0l.142-.081h0a.163.163,0,0,0,.069-.146.5.5,0,0,0-.223-.386.159.159,0,0,0-.141.009Z" transform="translate(-314.36 -141.859)" opacity="0.15"/>
      <path id="Trazado_702" data-name="Trazado 702" d="M351.9,188.877c0,.146-.1.2-.223.129a.484.484,0,0,1-.223-.386c0-.141.1-.2.223-.129a.493.493,0,0,1,.223.386Z" transform="translate(-314.309 -141.98)" fill="#c00"/>
      <path id="Trazado_703" data-name="Trazado 703" d="M351.561,174.644l-.2.116h0a.292.292,0,0,0-.034.146.664.664,0,0,0,.3.523.265.265,0,0,0,.137.043h0l.2-.116h0a.219.219,0,0,0,.086-.2.669.669,0,0,0-.3-.523A.218.218,0,0,0,351.561,174.644Z" transform="translate(-314.24 -134.07)" fill="#263238"/>
      <path id="Trazado_704" data-name="Trazado 704" d="M351.8,175.464c0,.193-.133.27-.3.176a.681.681,0,0,1-.3-.527c0-.193.137-.27.3-.176A.673.673,0,0,1,351.8,175.464Z" transform="translate(-314.166 -134.23)" fill="#37474f"/>
      <path id="Trazado_705" data-name="Trazado 705" d="M351.561,178.509l-.2.111h0a.292.292,0,0,0-.034.146.664.664,0,0,0,.3.523.265.265,0,0,0,.137.043h0l.2-.116h0a.219.219,0,0,0,.086-.2.66.66,0,0,0-.3-.523A.21.21,0,0,0,351.561,178.509Z" transform="translate(-314.24 -136.277)" fill="#263238"/>
      <path id="Trazado_706" data-name="Trazado 706" d="M351.8,179.334c0,.193-.133.27-.3.176a.682.682,0,0,1-.3-.527c0-.193.137-.27.3-.176A.673.673,0,0,1,351.8,179.334Z" transform="translate(-314.166 -136.441)" fill="#37474f"/>
      <path id="Trazado_707" data-name="Trazado 707" d="M358.423,145.223a.429.429,0,0,0-.2-.33l-1.86-1.067a.429.429,0,0,0-.394,0L353.4,145.3a.4.4,0,0,0-.189.33.428.428,0,0,0,.206.334l1.852,1.063a.429.429,0,0,0,.394,0l2.572-1.479A.429.429,0,0,0,358.423,145.223Z" transform="translate(-315.314 -116.451)" fill="#c00"/>
      <path id="Trazado_708" data-name="Trazado 708" d="M358.423,145.223a.429.429,0,0,0-.2-.33l-1.86-1.067a.429.429,0,0,0-.394,0L353.4,145.3a.4.4,0,0,0-.189.33.428.428,0,0,0,.206.334l1.852,1.063a.429.429,0,0,0,.394,0l2.572-1.479A.429.429,0,0,0,358.423,145.223Z" transform="translate(-315.314 -116.451)" fill="#fff" opacity="0.2"/>
      <path id="Trazado_709" data-name="Trazado 709" d="M358.37,145.121,355.8,146.6a.429.429,0,0,1-.394,0l-1.86-1.067c-.107-.064-.107-.167,0-.227l2.572-1.475a.429.429,0,0,1,.394,0l1.86,1.067C358.481,144.958,358.481,145.061,358.37,145.121Z" transform="translate(-315.458 -116.451)" fill="#c00"/>
      <path id="Trazado_710" data-name="Trazado 710" d="M358.37,145.121,355.8,146.6a.429.429,0,0,1-.394,0l-1.86-1.067c-.107-.064-.107-.167,0-.227l2.572-1.475a.429.429,0,0,1,.394,0l1.86,1.067C358.481,144.958,358.481,145.061,358.37,145.121Z" transform="translate(-315.458 -116.451)" fill="#fff" opacity="0.5"/>
      <path id="Trazado_711" data-name="Trazado 711" d="M355.258,149.08l-1.852-1.063a.429.429,0,0,1-.206-.334.394.394,0,0,1,.163-.313c-.082.064-.073.15.026.21l1.86,1.067a.347.347,0,0,0,.2.047h0v.429A.386.386,0,0,1,355.258,149.08Z" transform="translate(-315.309 -118.503)" opacity="0.15"/>
      <path id="Trazado_712" data-name="Trazado 712" d="M358.718,144v.476a.317.317,0,0,1-.141.244l-1.912,1.1a.3.3,0,0,1-.283,0l-1.033-.609a.262.262,0,0,1,0-.459l1.033-.6a1.157,1.157,0,0,0,.249-.206l.664-.763a.2.2,0,0,1,.249-.043l1.033.6a.318.318,0,0,1,.142.257Z" transform="translate(-316.459 -116.075)" fill="#c00"/>
      <path id="Trazado_713" data-name="Trazado 713" d="M358.718,144v.476a.317.317,0,0,1-.141.244l-1.912,1.1a.3.3,0,0,1-.283,0l-1.033-.609a.262.262,0,0,1,0-.459l1.033-.6a1.157,1.157,0,0,0,.249-.206l.664-.763a.2.2,0,0,1,.249-.043l1.033.6a.318.318,0,0,1,.142.257Z" transform="translate(-316.459 -116.075)" opacity="0.3"/>
      <path id="Trazado_714" data-name="Trazado 714" d="M356.769,145.543l1.033-.6a1.13,1.13,0,0,0,.244-.206l.669-.767a.129.129,0,0,0-.034-.2l-1.033-.6a.2.2,0,0,0-.249.043l-.664.763a1.159,1.159,0,0,1-.249.206l-1.033.613c-.077.043-.077.116,0,.163l1.037.6A.317.317,0,0,0,356.769,145.543Z" transform="translate(-316.563 -116.093)" fill="#c00"/>
      <path id="Trazado_715" data-name="Trazado 715" d="M360.306,143.772l-1.033-.6a.2.2,0,0,0-.249.043l-.664.763a1.039,1.039,0,0,1-.12.116l1.312.759a1.037,1.037,0,0,0,.12-.116l.669-.767a.129.129,0,0,0-.034-.2Z" transform="translate(-318.188 -116.093)" opacity="0.15"/>
      <path id="Trazado_716" data-name="Trazado 716" d="M356.5,147.777v.3a.317.317,0,0,1-.129-.034l-1.029-.6a.3.3,0,0,1-.146-.227.287.287,0,0,1,.12-.21c-.052.039-.043.1.026.141l1.029.6A.314.314,0,0,0,356.5,147.777Z" transform="translate(-316.451 -118.297)" opacity="0.15"/>
      <path id="Trazado_717" data-name="Trazado 717" d="M357.926,146.119l-1.312-.759a1.015,1.015,0,0,1-.129.09l-1.033.613c-.077.043-.077.116,0,.163l1.037.6a.317.317,0,0,0,.279,0l1.033-.6Z" transform="translate(-316.563 -117.354)" opacity="0.05"/>
      <path id="Trazado_718" data-name="Trazado 718" d="M342.13,129.369v-.334h.081a1.128,1.128,0,0,1,.429-.429,2.744,2.744,0,0,1,2.478,0,1.1,1.1,0,0,1,.429.429h.081v.334h0a.857.857,0,0,1-.514.716,2.744,2.744,0,0,1-2.478,0A.857.857,0,0,1,342.13,129.369Z" transform="translate(-308.984 -107.613)" fill="#263238"/>
      <path id="Trazado_719" data-name="Trazado 719" d="M345.126,129.368a.755.755,0,0,0,0-1.432,2.744,2.744,0,0,0-2.478,0,.757.757,0,0,0,0,1.432A2.744,2.744,0,0,0,345.126,129.368Z" transform="translate(-308.988 -107.231)" fill="#37474f"/>
      <path id="Trazado_720" data-name="Trazado 720" d="M343.05,128.187v-.579h.064a.857.857,0,0,1,.334-.322,2.144,2.144,0,0,1,1.921,0,.88.88,0,0,1,.339.321h.06v.579h0a.677.677,0,0,1-.4.557,2.143,2.143,0,0,1-1.92,0A.677.677,0,0,1,343.05,128.187Z" transform="translate(-309.509 -106.899)" fill="#c00"/>
      <path id="Trazado_721" data-name="Trazado 721" d="M343.05,128.187v-.579h.064a.857.857,0,0,1,.334-.322,2.144,2.144,0,0,1,1.921,0,.88.88,0,0,1,.339.321h.06v.579h0a.677.677,0,0,1-.4.557,2.143,2.143,0,0,1-1.92,0A.677.677,0,0,1,343.05,128.187Z" transform="translate(-309.509 -106.899)" opacity="0.15"/>
      <path id="Trazado_722" data-name="Trazado 722" d="M345.369,127.858a.586.586,0,0,0,0-1.11,2.143,2.143,0,0,0-1.92,0,.586.586,0,0,0,0,1.11A2.144,2.144,0,0,0,345.369,127.858Z" transform="translate(-309.509 -106.591)" fill="#c00"/>
      <path id="Trazado_723" data-name="Trazado 723" d="M353.462,124.562l-1.436.832a.592.592,0,0,1-.523,0l-1.436-.832a.159.159,0,0,1,0-.3l1.436-.827a.566.566,0,0,1,.523,0l1.436.827a.159.159,0,0,1,0,.3Z" transform="translate(-313.457 -104.791)" fill="#263238"/>
      <path id="Trazado_724" data-name="Trazado 724" d="M353.605,124.966l-1.436.832a.591.591,0,0,1-.523,0l-1.436-.832,1.436-.827a.592.592,0,0,1,.523,0Z" transform="translate(-313.6 -105.195)" fill="#37474f"/>
      <path id="Trazado_725" data-name="Trazado 725" d="M352.71,125.419v-.266h.03a.4.4,0,0,1,.154-.15,1,1,0,0,1,.883,0,.348.348,0,0,1,.154.15h.03v.266h0a.313.313,0,0,1-.184.257.973.973,0,0,1-.883,0A.313.313,0,0,1,352.71,125.419Z" transform="translate(-315.029 -105.665)" fill="#c00"/>
      <path id="Trazado_726" data-name="Trazado 726" d="M352.71,125.419v-.266h.03a.4.4,0,0,1,.154-.15,1,1,0,0,1,.883,0,.348.348,0,0,1,.154.15h.03v.266h0a.313.313,0,0,1-.184.257.973.973,0,0,1-.883,0A.313.313,0,0,1,352.71,125.419Z" transform="translate(-315.029 -105.665)" opacity="0.15"/>
      <path id="Trazado_727" data-name="Trazado 727" d="M353.773,125.267a.27.27,0,0,0,0-.514,1,1,0,0,0-.883,0,.27.27,0,0,0,0,.514A1,1,0,0,0,353.773,125.267Z" transform="translate(-315.024 -105.522)" fill="#c00"/>
      <path id="Trazado_728" data-name="Trazado 728" d="M360.054,120.76l-1.436.827a.591.591,0,0,1-.523,0l-1.436-.827c-.141-.086-.141-.219,0-.3l1.436-.832a.591.591,0,0,1,.523,0l1.436.832C360.2,120.542,360.2,120.675,360.054,120.76Z" transform="translate(-317.224 -102.618)" fill="#263238"/>
      <path id="Trazado_729" data-name="Trazado 729" d="M360.2,121.162l-1.436.827a.591.591,0,0,1-.523,0l-1.436-.827,1.436-.827a.566.566,0,0,1,.523,0Z" transform="translate(-317.365 -103.02)" fill="#37474f"/>
      <path id="Trazado_730" data-name="Trazado 730" d="M359.3,121.615v-.266h.03a.4.4,0,0,1,.154-.15.973.973,0,0,1,.883,0,.347.347,0,0,1,.154.15h.03v.266h0a.3.3,0,0,1-.184.253.973.973,0,0,1-.883,0A.313.313,0,0,1,359.3,121.615Z" transform="translate(-318.794 -103.49)" fill="#c00"/>
      <path id="Trazado_731" data-name="Trazado 731" d="M359.3,121.615v-.266h.03a.4.4,0,0,1,.154-.15.973.973,0,0,1,.883,0,.347.347,0,0,1,.154.15h.03v.266h0a.3.3,0,0,1-.184.253.973.973,0,0,1-.883,0A.313.313,0,0,1,359.3,121.615Z" transform="translate(-318.794 -103.49)" opacity="0.15"/>
      <path id="Trazado_732" data-name="Trazado 732" d="M360.371,121.459a.27.27,0,0,0,0-.51.973.973,0,0,0-.883,0,.27.27,0,0,0,0,.51.973.973,0,0,0,.883,0Z" transform="translate(-318.798 -103.347)" fill="#c00"/>
      <path id="Trazado_733" data-name="Trazado 733" d="M380.292,151.734h0l-.167-.1a3.884,3.884,0,0,0-3.781.429,12.123,12.123,0,0,0-5.5,9.482,5.576,5.576,0,0,0,.236,1.715,3.332,3.332,0,0,0,.982,1.565,3.03,3.03,0,0,0,.334.244h.021l.094.051,3.678,2.143a2.859,2.859,0,0,1-.429-.326,4.228,4.228,0,0,1-1.136-3.206,12.1,12.1,0,0,1,5.5-9.482,4.221,4.221,0,0,1,3.344-.6,2.266,2.266,0,0,1,.429.184Z" transform="translate(-325.391 -120.758)" fill="#c00"/>
      <path id="Trazado_734" data-name="Trazado 734" d="M380.292,151.734h0l-.167-.1a3.884,3.884,0,0,0-3.781.429,12.123,12.123,0,0,0-5.5,9.482,5.576,5.576,0,0,0,.236,1.715,3.332,3.332,0,0,0,.982,1.565,3.03,3.03,0,0,0,.334.244h.021l.094.051,3.678,2.143a2.859,2.859,0,0,1-.429-.326,4.228,4.228,0,0,1-1.136-3.206,12.1,12.1,0,0,1,5.5-9.482,4.221,4.221,0,0,1,3.344-.6,2.266,2.266,0,0,1,.429.184Z" transform="translate(-325.391 -120.758)" opacity="0.25"/>
      <path id="Trazado_735" data-name="Trazado 735" d="M369.418,163.323a2.666,2.666,0,0,0,.334.244l-1.938-1.127h-.021a3.886,3.886,0,0,1-1.573-3.536,12.088,12.088,0,0,1,5.5-9.478,4.981,4.981,0,0,1,2.448-.746,2.851,2.851,0,0,1,1.427.369l1.895,1.1a3.884,3.884,0,0,0-3.781.429,12.123,12.123,0,0,0-5.5,9.482,5.574,5.574,0,0,0,.236,1.715A3.267,3.267,0,0,0,369.418,163.323Z" transform="translate(-322.747 -119.251)" fill="#455a64"/>
      <path id="Trazado_736" data-name="Trazado 736" d="M396.687,163.88a12.084,12.084,0,0,1-5.5,9.478,4.981,4.981,0,0,1-2.448.746,2.838,2.838,0,0,1-1.419-.364h0l-5.933-3.429-.077-.043a2.858,2.858,0,0,1-.429-.326,4.227,4.227,0,0,1-1.136-3.206,12.1,12.1,0,0,1,5.5-9.482,4.222,4.222,0,0,1,3.344-.6,2.264,2.264,0,0,1,.429.184h.026l.154.09,5.868,3.4h0A3.816,3.816,0,0,1,396.687,163.88Z" transform="translate(-330.477 -123.726)" fill="#37474f"/>
      <path id="Trazado_737" data-name="Trazado 737" d="M376.043,183.015a.147.147,0,0,1-.082,0l-2.075-1.192a.167.167,0,0,1,.163-.287l2.075,1.192a.171.171,0,0,1,.064.227A.18.18,0,0,1,376.043,183.015Z" transform="translate(-327.091 -138.017)" fill="#37474f"/>
      <path id="Trazado_738" data-name="Trazado 738" d="M375.034,179.489a.193.193,0,0,1-.081-.021l-2.062-1.192a.167.167,0,0,1-.06-.227.163.163,0,0,1,.227-.06l2.075,1.192a.167.167,0,0,1-.086.309Z" transform="translate(-326.511 -135.983)" fill="#37474f"/>
      <path id="Trazado_739" data-name="Trazado 739" d="M374.661,176.255a.2.2,0,0,1-.086,0l-2.075-1.2a.163.163,0,0,1-.06-.223.167.167,0,0,1,.227-.064l2.075,1.2a.167.167,0,0,1-.082.309Z" transform="translate(-326.289 -134.146)" fill="#37474f"/>
      <path id="Trazado_740" data-name="Trazado 740" d="M374.845,173.29a.146.146,0,0,1-.082,0l-2.075-1.192a.165.165,0,1,1,.163-.287L374.926,173a.171.171,0,0,1,.064.227A.18.18,0,0,1,374.845,173.29Z" transform="translate(-326.395 -132.454)" fill="#37474f"/>
      <path id="Trazado_741" data-name="Trazado 741" d="M375.692,170.465a.145.145,0,0,1-.081,0l-2.075-1.192a.167.167,0,0,1,.163-.287l2.075,1.192a.15.15,0,0,1-.081.287Z" transform="translate(-326.891 -130.847)" fill="#37474f"/>
      <path id="Trazado_742" data-name="Trazado 742" d="M376.778,167.6a.141.141,0,0,1-.081-.026l-2.079-1.192a.167.167,0,1,1,.167-.287l2.075,1.2a.159.159,0,0,1,.06.223A.163.163,0,0,1,376.778,167.6Z" transform="translate(-327.488 -129.183)" fill="#37474f"/>
      <path id="Trazado_743" data-name="Trazado 743" d="M378.221,164.9a.21.21,0,0,1-.086-.021l-2.075-1.2a.167.167,0,0,1-.06-.227.171.171,0,0,1,.227-.06l2.075,1.2a.158.158,0,0,1,.06.223A.163.163,0,0,1,378.221,164.9Z" transform="translate(-328.322 -127.645)" fill="#37474f"/>
      <path id="Trazado_744" data-name="Trazado 744" d="M379.891,162.327a.154.154,0,0,1-.086-.026l-2.075-1.192a.167.167,0,0,1-.06-.227.171.171,0,0,1,.227-.06l2.075,1.2a.167.167,0,0,1-.081.309Z" transform="translate(-329.277 -126.177)" fill="#37474f"/>
      <path id="Trazado_745" data-name="Trazado 745" d="M381.773,159.968a.176.176,0,0,1-.081-.021l-2.079-1.2a.167.167,0,0,1-.06-.223.171.171,0,0,1,.227-.064l2.075,1.2a.163.163,0,0,1,.06.227A.167.167,0,0,1,381.773,159.968Z" transform="translate(-330.353 -124.83)" fill="#37474f"/>
      <path id="Trazado_746" data-name="Trazado 746" d="M383.86,157.89a.151.151,0,0,1-.086,0L381.7,156.7a.167.167,0,0,1,.167-.287l2.075,1.192a.151.151,0,0,1-.081.287Z" transform="translate(-331.553 -123.66)" fill="#37474f"/>
      <path id="Trazado_747" data-name="Trazado 747" d="M386.032,156.067a.193.193,0,0,1-.081,0l-2.062-1.217a.163.163,0,0,1-.06-.227.167.167,0,0,1,.223-.06l2.075,1.2a.163.163,0,0,1,.064.223A.167.167,0,0,1,386.032,156.067Z" transform="translate(-332.794 -122.601)" fill="#37474f"/>
      <path id="Trazado_748" data-name="Trazado 748" d="M388.695,154.5a.193.193,0,0,1-.082,0l-2.075-1.2a.163.163,0,0,1-.06-.227.167.167,0,0,1,.21-.094l2.075,1.2a.163.163,0,0,1,.064.223A.171.171,0,0,1,388.695,154.5Z" transform="translate(-334.308 -121.707)" fill="#37474f"/>
      <path id="Trazado_749" data-name="Trazado 749" d="M391.758,153.457a.2.2,0,0,1-.086-.021l-2.075-1.192a.167.167,0,1,1,.167-.287l2.075,1.192a.167.167,0,0,1-.081.309Z" transform="translate(-336.047 -121.104)" fill="#37474f"/>
      <path id="Trazado_750" data-name="Trazado 750" d="M377.488,170.226a10.639,10.639,0,0,0-.793,3.824,5.143,5.143,0,0,0,.66,2.735l-3.652-2.113-.081-.047h0l-3.669-2.143-.09-.051h-.026l-1.942-1.127h-.026a3.874,3.874,0,0,1-1.569-3.536,10.064,10.064,0,0,1,.746-3.605Z" transform="translate(-322.793 -128.096)" opacity="0.15"/>
      <path id="Trazado_751" data-name="Trazado 751" d="M399.525,159.873c-1.187-.694-2.825-.6-4.642.429a14.523,14.523,0,0,0-6.593,11.368c0,2.053.7,3.5,1.848,4.205.386.24,2.966,1.638,3.331,1.852,1.187.694,2.829.6,4.651-.429a14.527,14.527,0,0,0,6.593-11.368c0-2.066-.716-3.524-1.878-4.222C402.457,161.48,399.89,160.1,399.525,159.873Z" transform="translate(-335.357 -125.39)" fill="#455a64"/>
      <path id="Trazado_752" data-name="Trazado 752" d="M390.053,195.259a1.682,1.682,0,0,0,.111.171c-.043-.056-.081-.116-.124-.18h0Z" transform="translate(-336.357 -145.859)" fill="#455a64"/>
      <path id="Trazado_753" data-name="Trazado 753" d="M395.9,175.9c0,4.192,2.932,5.9,6.563,3.807a14.538,14.538,0,0,0,6.6-11.368c.009-4.192-2.932-5.894-6.567-3.807A14.522,14.522,0,0,0,395.9,175.9Z" transform="translate(-339.705 -127.798)" fill="#37474f"/>
      <path id="Trazado_754" data-name="Trazado 754" d="M401.69,181.142c-1.822,0-2.015-2.143-2.01-3.078a12.929,12.929,0,0,1,5.778-9.966,4.394,4.394,0,0,1,2.143-.677c1.822,0,2.015,2.143,2.01,3.078a12.922,12.922,0,0,1-5.783,9.966,4.411,4.411,0,0,1-2.143.677Z" transform="translate(-341.864 -129.958)" fill="#263238"/>
      <path id="Trazado_755" data-name="Trazado 755" d="M407.447,168.36a6.7,6.7,0,0,0-.06-.9,4.655,4.655,0,0,0-1.929.66,12.941,12.941,0,0,0-5.778,9.966,6.692,6.692,0,0,0,.06.9,4.62,4.62,0,0,0,1.925-.66A12.925,12.925,0,0,0,407.447,168.36Z" transform="translate(-341.864 -129.981)" fill="#c00"/>
      <path id="Trazado_756" data-name="Trazado 756" d="M407.447,168.36a6.7,6.7,0,0,0-.06-.9,4.655,4.655,0,0,0-1.929.66,12.941,12.941,0,0,0-5.778,9.966,6.692,6.692,0,0,0,.06.9,4.62,4.62,0,0,0,1.925-.66A12.925,12.925,0,0,0,407.447,168.36Z" transform="translate(-341.864 -129.981)" opacity="0.3"/>
      <path id="Trazado_757" data-name="Trazado 757" d="M405.656,171.518c1.235-1.492,2.829-1.985,3.078-1.432s-.54,5.937-5.744,9.1a18.24,18.24,0,0,0,4.184-5.487C407.98,171.9,407.247,170.438,405.656,171.518Z" transform="translate(-343.755 -131.356)" fill="#e0e0e0"/>
      <path id="Trazado_758" data-name="Trazado 758" d="M393.321,186.428c-.021,0-.043-.026-.069-.034l-.051-.03-.107-.06-.09-.051-.2-.1-.429-.249-1.569-.857-.364-.206-.283-.163a2.873,2.873,0,0,1-.429-.3l-.18-.167a2.659,2.659,0,0,1-.27-.313,1.741,1.741,0,0,1-.107-.141,1.682,1.682,0,0,1-.111-.171h0a5.826,5.826,0,0,1-.75-3.1,12.105,12.105,0,0,1,.9-4.334q.107-.283.231-.553c.06-.133.116-.27.184-.4s.129-.266.193-.4l3.237,1.878a12.926,12.926,0,0,0-1.487,5.633,5.885,5.885,0,0,0,.729,3.074A3.392,3.392,0,0,0,393.321,186.428Z" transform="translate(-335.368 -134.169)" opacity="0.15"/>
      <path id="Trazado_759" data-name="Trazado 759" d="M331.33,97.139v-.463h.112a1.539,1.539,0,0,1,.6-.579,3.8,3.8,0,0,1,3.451,0,1.513,1.513,0,0,1,.6.579h.111v.467h0a1.213,1.213,0,0,1-.716.994,3.8,3.8,0,0,1-3.451,0A1.213,1.213,0,0,1,331.33,97.139Z" transform="translate(-302.813 -88.972)" fill="#263238"/>
      <path id="Trazado_760" data-name="Trazado 760" d="M335.5,97.115a1.053,1.053,0,0,0,0-1.993,3.824,3.824,0,0,0-3.451,0,1.053,1.053,0,0,0,0,1.993A3.824,3.824,0,0,0,335.5,97.115Z" transform="translate(-302.816 -88.416)" fill="#37474f"/>
      <path id="Trazado_761" data-name="Trazado 761" d="M349.7,86.712l-11.145-6.43a1.895,1.895,0,0,0-2.842,1.642v5.6a.287.287,0,0,0,.167.219.883.883,0,0,0,.814-.009.27.27,0,0,0,.163-.219v-5.6a.75.75,0,0,1,.382-.656.737.737,0,0,1,.763,0l11.145,6.43a.562.562,0,0,0,.772-.206A.57.57,0,0,0,349.7,86.712Z" transform="translate(-305.316 -80.028)" fill="#263238"/>
      <path id="Trazado_762" data-name="Trazado 762" d="M377.2,99.145h0c-.7-1.2-13.486-9.431-16.808-11.355a1.286,1.286,0,0,0-1.346.1,4.115,4.115,0,0,0-1.86,3.224,1.286,1.286,0,0,0,.579,1.222c3.348,1.929,16.559,8.963,18.364,8.882a1.312,1.312,0,0,0,1.312-1.316A1.286,1.286,0,0,0,377.2,99.145Z" transform="translate(-317.583 -84.38)" fill="#c00"/>
      <path id="Trazado_763" data-name="Trazado 763" d="M377.394,104.1c-.373.523-1.029.793-3.095-.1-1.92-.857-13.083-7.356-17.035-9.649a2.837,2.837,0,0,0-.064.592,1.286,1.286,0,0,0,.579,1.222c3.348,1.929,16.559,8.963,18.364,8.882A1.286,1.286,0,0,0,377.394,104.1Z" transform="translate(-317.589 -88.211)" opacity="0.1"/>
      <path id="Trazado_764" data-name="Trazado 764" d="M329.68,124.573a.429.429,0,0,1,.2-.326l1.86-1.072a.429.429,0,0,1,.394,0l1.329.767a.4.4,0,0,1,.189.334.429.429,0,0,1-.206.33l-1.852,1.067a.455.455,0,0,1-.394,0l-1.32-.772A.429.429,0,0,1,329.68,124.573Z" transform="translate(-301.871 -104.653)" fill="#c00"/>
      <path id="Trazado_765" data-name="Trazado 765" d="M329.68,124.573a.429.429,0,0,1,.2-.326l1.86-1.072a.429.429,0,0,1,.394,0l1.329.767a.4.4,0,0,1,.189.334.429.429,0,0,1-.206.33l-1.852,1.067a.455.455,0,0,1-.394,0l-1.32-.772A.429.429,0,0,1,329.68,124.573Z" transform="translate(-301.871 -104.653)" fill="#fff" opacity="0.2"/>
      <path id="Trazado_766" data-name="Trazado 766" d="M330.033,124.475l1.329.767a.429.429,0,0,0,.394,0l1.86-1.072c.111-.06.111-.163,0-.227l-1.329-.767a.429.429,0,0,0-.394,0l-1.86,1.072C329.926,124.308,329.926,124.411,330.033,124.475Z" transform="translate(-302.026 -104.653)" fill="#c00"/>
      <path id="Trazado_767" data-name="Trazado 767" d="M330.033,124.475l1.329.767a.429.429,0,0,0,.394,0l1.86-1.072c.111-.06.111-.163,0-.227l-1.329-.767a.429.429,0,0,0-.394,0l-1.86,1.072C329.926,124.308,329.926,124.411,330.033,124.475Z" transform="translate(-302.026 -104.653)" fill="#fff" opacity="0.5"/>
      <path id="Trazado_768" data-name="Trazado 768" d="M333.889,126.79l1.852-1.067a.429.429,0,0,0,.206-.33.4.4,0,0,0-.159-.313c.077.06.069.15-.03.206l-1.86,1.072a.429.429,0,0,1-.2.047h0v.429A.428.428,0,0,0,333.889,126.79Z" transform="translate(-304.167 -105.768)" opacity="0.15"/>
      <path id="Trazado_769" data-name="Trazado 769" d="M302,108.687a.429.429,0,0,1,.2-.326l1.865-1.072a.454.454,0,0,1,.394,0l1.325.767a.429.429,0,0,1,.193.334.476.476,0,0,1-.206.334l-1.856,1.063a.429.429,0,0,1-.394,0l-1.32-.772A.429.429,0,0,1,302,108.687Z" transform="translate(-286.056 -95.578)" fill="#c00"/>
      <path id="Trazado_770" data-name="Trazado 770" d="M302,108.687a.429.429,0,0,1,.2-.326l1.865-1.072a.454.454,0,0,1,.394,0l1.325.767a.429.429,0,0,1,.193.334.476.476,0,0,1-.206.334l-1.856,1.063a.429.429,0,0,1-.394,0l-1.32-.772A.429.429,0,0,1,302,108.687Z" transform="translate(-286.056 -95.578)" fill="#fff" opacity="0.2"/>
      <path id="Trazado_771" data-name="Trazado 771" d="M302.373,108.589l1.329.767a.429.429,0,0,0,.394,0l1.86-1.067a.12.12,0,0,0,0-.231l-1.325-.767a.454.454,0,0,0-.394,0l-1.865,1.072C302.266,108.426,302.266,108.529,302.373,108.589Z" transform="translate(-286.223 -95.578)" fill="#c00"/>
      <path id="Trazado_772" data-name="Trazado 772" d="M302.373,108.589l1.329.767a.429.429,0,0,0,.394,0l1.86-1.067a.12.12,0,0,0,0-.231l-1.325-.767a.454.454,0,0,0-.394,0l-1.865,1.072C302.266,108.426,302.266,108.529,302.373,108.589Z" transform="translate(-286.223 -95.578)" fill="#fff" opacity="0.5"/>
      <path id="Trazado_773" data-name="Trazado 773" d="M306.229,110.9l1.856-1.067a.429.429,0,0,0,.2-.33.39.39,0,0,0-.159-.313c.081.064.069.15-.03.21l-1.86,1.067a.365.365,0,0,1-.2.047h0v.429A.386.386,0,0,0,306.229,110.9Z" transform="translate(-288.364 -96.689)" opacity="0.15"/>
      <path id="Trazado_774" data-name="Trazado 774" d="M307.549,101.578v3l-1.179.682v-4c0-.206.146-.291.326-.189Z" transform="translate(-288.553 -92.026)"/>
      <path id="Trazado_775" data-name="Trazado 775" d="M318.329,103.939v4.878l-1.106.63-.759-.429v-4a.712.712,0,0,0-.321-.557l-9.229-5.328-1.192-.69a.2.2,0,0,0-.326.189v4l-.759-.429v-4.9a.333.333,0,0,1,0-.064.711.711,0,0,1,.317-.5l.48-.279a.707.707,0,0,1,.643,0l11.938,6.893A.7.7,0,0,1,318.329,103.939Z" transform="translate(-287.562 -89.376)" fill="#37474f"/>
      <path id="Trazado_776" data-name="Trazado 776" d="M317.223,105.483v4.878l-.759-.429v-4a.712.712,0,0,0-.321-.557l-9.229-5.328-1.192-.69a.2.2,0,0,0-.326.189v4l-.759-.429v-4.9a.333.333,0,0,1,0-.064c.026-.159.159-.214.317-.124l11.938,6.893A.716.716,0,0,1,317.223,105.483Z" transform="translate(-287.562 -90.29)" fill="#263238"/>
    </g>
  </g>
</svg>
